<svg xmlns="http://www.w3.org/2000/svg" xml:space="preserve" width="942.946" height="382.64" viewBox="0 0 249.488 101.24"><path d="M890.691 1486.55s-3.308-11.99-7.859-13.24c-5.383-4.95-19.848-13.22-10.746 11.99 1.238 7.86 23.559 6.21 23.977 32.25 0 0-19.852-23.15-23.567-.41.828 17.77.828 23.56-1.652 28.52-2.481 4.96 2.054 7.86 6.605 14.47 4.563 6.62 14.887 21.92 3.735 39.69-5.801 3.73-2.903-29.35-38.871-23.98-33.071 7.86-55.387 23.98-87.219 3.72-12.004-7.85-15.723-4.55-21.09-4.55-5.371 0 0-6.61-5.789-5.78-5.781.83-48.371 11.99-47.129-45.88-2.07-6.62-15.305 14.87-17.363 23.14-2.067 8.27-31.008-47.13 21.914-56.64 14.465-.82 27.699 5.38 37.207 1.24 5.371-2.48-6.211-6.62-8.27-9.09 0 0-9.101-6.2 33.067-10.75 29.351-4.96 21.082-38.02-8.27-26.46-4.547-4.55 9.102-23.14 28.527-22.32 7.864-5.37-32.234-39.28-62.824-17.37-18.203 23.15-15.304 26.88-44.66 29.77-22.742 2.48-35.973-17.77-42.582-22.74-9.508-12.4-52.922-29.76-50.43 9.09 2.481 20.68 12.813 22.33 26.86 24.82 37.633-.42 78.148 39.68 41.347 81.85-8.254-8.68-10.746-36.8-47.136-12.41-14.868 15.71-36.368 58.71-82.274 28.53-34.301-29.76-25.617-31.42-56.211-59.54-30.593-28.11-44.234-22.73-53.332-19.83 0 0-10.34-36.39 40.098-24.4 6.199-1.64-12.809-16.95-19.016-20.25-6.195-3.31-26.453-14.48-37.207-4.14-9.5 5.8-7.031-11.16-4.547-12.82 0 0 21.082-42.17 73.586 6.62 8.274 6.62 6.618-1.65 4.547-5.38-2.062-3.72-27.281-47.12-33.898-113.27-6.614-66.15-43.406-137.67-43.406-137.67s-5.782-7.86 2.89-6.2c8.688 1.64 52.094 0 76.078 86.82 23.969 86.82 22.731 89.3 22.731 89.3s4.551 12.4 5.789-2.07c1.242-14.48-21.906-119.89-37.211-167.85-15.293-47.95-42.164-94.26-42.164-94.26s51.679-30.18 75.656 48.38c21.082 81.03 40.922 166.6 40.922 166.6s7.027 26.05 10.336 8.69c-2.07-23.98-16.945-85.18-24.809-115.76-7.847-30.61-26.461-133.13-57.871-152.13 31.422-9.53 68.633 9.92 81.852 63.26 13.23 53.32 42.172 178.16 42.172 178.16s5.379 18.19 9.097.41c-2.886-26.44-20.261-105-20.261-105l-17.356-83.1s-6.613-39.69-31.422-65.72c3.313-11.18 71.508 20.68 80.61 71.93 9.101 51.27 31.011 172.79 31.011 172.79s.41 9.94 5.789 9.94c5.368 0 2.485-11.6 2.485-11.6s-22.746-144.68-26.883-160.39c-4.129-15.7-6.191-40.51-20.254-59.1 11.992-4.55 57.051 24.38 64.082 64.88 7.023 40.51 28.109 163.73 28.109 163.73s1.243 6.61 5.383 6.2c7.016 5.37 3.707-19.03 4.129-8.7l-30.598-183.96s46.719 8.28 57.875 70.7l16.125 103.77s4.137 27.29 9.098 14.88c4.949-12.4-1.656-18.18 22.32-51.67 23.981-33.48-1.238-62.86-22.32-40.53-5.379-6.19-9.922-33.07 22.742-35.53 2.481-13.24-66.152-70.29-66.152-70.29l36.383-1.25 7.449-43.4s24.379 47.13 45.879 67.38c6.195 15.29 15.297-83.921-37.621-74.82 0 0-8.258-23.172 28.109-25.652-15.707-11.129-22.32-23.977-18.597-37.609 0 0 23.148 14.882 34.73 11.582 5.785-7.852-2.07-45.063-17.781-43.813 0 0-.824 27.684-19.422 24.371-21.918.41-36.391-46.711 5.781-49.187 16.117.816 25.223 5.797 27.692 4.547 2.476-1.231-2.059-6.2-7.442-9.11-5.371-2.89-25.211-15.289-20.25-41.75-.828-7.019 19.84 1.66 23.981 3.731 4.14 2.07 14.468 9.101 9.496-2.891-4.953-12-8.676-35.961 16.133-58.301 0 0 30.179 17.793 20.257 57.891.825 10.332 3.723 3.301 8.672 1.23 0 0 27.711-7.437 26.461.411-1.23 7.851-2.89 17.789-22.726 40.929-8.684 12 4.125 7.039 4.125 7.039s41.339-12 47.961 23.571c6.609 35.531-49.204 27.269-36.379.41 0-12.008-38.871 10.742-28.942 38.441 0 0 10.332 5.781 31-12.398 7.453 5.777 4.961 23.566-11.992 38.429 0 0 26.051 6.618 26.051 26.469 2.48 7.87-44.649-18.191-40.508 74 .41 2.07 2.48 2.89 4.949.41 0 0 39.278-37.62 47.551-83.922 6.609 2.481 1.648 44.232 14.469 53.752 8.269 1.64 31.422-.82 31.422-.82s-38.86 28.1-65.321 72.34c-2.48 6.62 2.481 6.21 2.481 6.21s17.359 2.07 17.769 30.16c-11.164-3.3-50.429-4.12-20.25 40.52 24.391 31.84 19.02 27.7 26.864 49.2 0 0 1.66 2.46 3.312-3.32 0 0 4.133-11.97 5.781-84.33 1.66-72.35 29.774-90.53 55.403-102.52-7.864 69.86-14.469 190.17-14.469 190.17s3.309 14.07 9.926-.84c3.711-55.39 14.465-153.38 14.465-153.38s-5.782-71.09 58.705-90.11c-4.55 16.54-13.23 48.79-19.02 123.2-5.79 74.41-7.44 109.55-7.44 109.55s1.65 8.26 7.03 0c5.38-8.26 7.85-111.6 14.05-140.57 6.2-28.92 6.2-114.919 62.03-121.13-4.56 18.622-23.58 168.26-23.58 168.26l-10.33 101.29s1.23 12.4 9.09 4.14c2.07-11.56 3.72-29.76 3.72-29.76l22.74-176.55s4.96-71.501 64.5-65.309c-7.04 19.437-19.44 62.849-31.01 127.329-7.86 43.41-12.82 76.91-19.02 161.66.42 10.74 4.55 9.1 5.79 2.48 1.24-6.62 11.99-97.15 19.85-128.58 7.84-31.42 13.63-145.928 84.74-122.36-30.55 48.38-45.36 143.63-47.13 150.06-16.7 60.96-18.19 128.88-18.19 128.16 0 0 .42 14.47 7.86 4.12 2.47-16.11 3.71-33.47 3.71-33.47s3.64-43.38 14.76-83.97c12-43.85 26.18-56.99 67.1-63.61-4.54 17.34-21.5 37.19-28.94 98.79-10.74 78.96 0 126.93-42.17 190.17 0 4.55 5.38-.83 16.55-6.2 11.15-5.36 61.18-32.23 68.21 10.75-9.09-1.65-37.62-11.99-84.76 38.44 20.26-1.23 45.48-.82 53.33 22.74-4.13 3.72-30.99-18.6-83.08 36.8-57.89 68.63-87.24 14.88-92.2 13.64-17.37-23.98-57.88-33.48-51.259 11.57 0 0-51.265-23.97-14.058-69.44 15.711-25.22 47.537-30.18 54.567-34.72 47.96-24.41 3.72-61.62-21.91-40.1-20.259 25.21-39.267 40.92-92.185 14.45-41.343-19-52.09-5.37-53.242 9.51-.812 7.8 7.68 14.33 28.434 9.11 0 0 7.855 8.67-10.742 28.51 7.847 16.54 10.332 22.33 4.96 33.08" style="fill:#050301;fill-opacity:1;fill-rule:nonzero;stroke:none" transform="matrix(.03528 0 0 -.03528 0 101.24)"/><path d="M788.984 1559.31s-11.992-9.92-3.718-18.2c8.265-8.27 16.125-4.96 21.906 3.73 5.793 8.68-7.02-3.31-12.813 7.03-5.785 10.33-5.375 7.44-5.375 7.44" style="fill:#fff;fill-opacity:1;fill-rule:nonzero;stroke:none" transform="matrix(.03528 0 0 -.03528 0 101.24)"/><path d="M765.004 1537.39s-.82 33.91-29.34 23.98c-7.859-4.55-11.582 0-11.582 0s-37.617 9.52-33.082-35.14c7.863-12.41 7.863 20.26 74.004 11.16M702.172 1500.19c-38.039-4.96-35.563 16.54-35.563 16.54 9.512-11.58 60.786-7.45 60.786-7.45s18.175 1.24 28.097 2.48c24.813-3.72 9.512-7.03 9.512-7.03l-29.34-.41-33.492-4.13M736.902 1481.59s27.692-.42 35.129-11.58c6.199 1.66 15.305 23.98-.422 22.74-27.687 0-34.707-11.16-34.707-11.16" style="fill:#ef3233;fill-opacity:1;fill-rule:nonzero;stroke:none" transform="matrix(.03528 0 0 -.03528 0 101.24)"/><path d="m913.949 1046.26-5.363-35.98 42.168-44.221s-37.215 2.89-35.145-16.539c-9.093-8.668-22.738-38.852 10.743-45.879 2.902 14.468 8.691 16.129 8.691 16.129s14.469-5.782 24.391 9.898c6.605 2.07 1.66-11.148-1.243-11.969-2.886-.82-19.015-20.679.825-33.5a464.07 464.07 0 0 1-4.953-22.32s26.871-5.367 36.371 21.891c11.996 14.48 9.097 19.441 1.25 32.269-7.86 12.813 8.676 11.563 7.847.84-.832-10.758 2.899-27.707 22.319-24 2.9-7.859 2.9-22.738 2.9-22.738s33.9 1.23 23.16 43.418c14.88 25.211-11.17 25.621-11.17 25.621s-18.6-1.66-19.02 7.859c.83 4.551 12.82-1.641 12.82-1.641s8.26-5.386 19.42 5.782c11.17 11.172 16.13-2.891 17.37-5.782 1.24-2.91 22.74 30.172-19.42 40.5-14.48 9.09-29.36-2.886-29.36-2.886s-18.609-18.184-28.937-4.551c-10.34 13.641-48.367 63.649-48.367 63.649l-27.297 4.15" style="fill:#050301;fill-opacity:1;fill-rule:nonzero;stroke:none" transform="matrix(.03528 0 0 -.03528 0 101.24)"/><path d="m921.813 1035.1-1.653-20.66 47.121-56.659s-54.156 4.981-39.269-15.293c9.922-21.078 11.582-14.886 25.218-6.629 7.856 7.879 11.165 7.879 18.192 1.25 7.019-6.597 2.058-11.578-2.902-19-4.946-7.441-18.176-26.05 3.73-25.64 21.906.41 16.535 9.511 8.273 21.91-2.48 16.133 11.161 20.66 14.868 21.07 3.718.41 15.309-1.23 13.649-17.34-1.65-16.129 9.09-23.16 19.01-11.578 9.93 11.578 24.8 19.43 1.66 22.731-23.15 3.297-23.98 12-21.08 21.508 2.89 9.511 14.05 10.761 26.04 3.3 16.95-2.07 9.1 14.469 9.1 14.469s-.42 19.43-24.39 6.602c-18.61-12.379-24.4-15.27-33.075-7.422-8.684 7.851-52.082 65.721-52.082 65.721l-12.41 1.66" style="fill:#ef3233;fill-opacity:1;fill-rule:nonzero;stroke:none" transform="matrix(.03528 0 0 -.03528 0 101.24)"/><path d="m921.813 1035.1-1.653-20.66 47.121-56.659s-54.156 4.981-39.269-15.293c9.922-21.078 11.582-14.886 25.218-6.629 7.856 7.879 11.165 7.879 18.192 1.25 7.019-6.597 2.058-11.578-2.902-19-4.946-7.441-18.176-26.05 3.73-25.64 21.906.41 16.535 9.511 8.273 21.91-2.48 16.133 11.161 20.66 14.868 21.07 3.718.41 15.309-1.23 13.649-17.34-1.65-16.129 9.09-23.16 19.01-11.578 9.93 11.578 24.8 19.43 1.66 22.731-23.15 3.297-23.98 12-21.08 21.508 2.89 9.511 14.05 10.761 26.04 3.3 16.95-2.07 9.1 14.469 9.1 14.469s-.42 19.43-24.39 6.602c-18.61-12.379-24.4-15.27-33.075-7.422-8.684 7.851-52.082 65.721-52.082 65.721z" style="fill:none;stroke:#ef3233;stroke-width:5;stroke-linecap:butt;stroke-linejoin:miter;stroke-miterlimit:4;stroke-dasharray:none;stroke-opacity:1" transform="matrix(.03528 0 0 -.03528 0 101.24)"/><path d="M1067.74 961.102s.42 12.398-14.88 12.398l-.41-9.922 15.29-2.476M1041.7 904.051s4.97-15.723-5.79-20.281c-4.96-.821-4.96 13.25-4.96 13.25l10.75 7.031M980.102 883.359s-.829-14.039-13.227-14.879c-.836 7.872 2.066 10.758 2.477 13.649.41 2.891 10.75 1.23 10.75 1.23M923.051 917.289l6.621 9.082-10.34 10.738s-15.301-12.808.828-21.07c2.063 0 2.891 1.25 2.891 1.25" style="fill:#ef3233;fill-opacity:1;fill-rule:nonzero;stroke:none" transform="matrix(.03528 0 0 -.03528 0 101.24)"/><path d="M448.336 1666.38s-15.719 29.35-43.828 18.19c-28.106-11.16-13.645-44.65-8.262-52.09-17.785 1.24-48.375-25.22-24.394-45.89 0 0 18.191-29.76 46.3.83 18.602-27.29 62.84-17.77 50.856 24.8 23.976 24.8 48.363 28.12 62.832 22.32 14.473-5.78 52.082-38.43 133.121-8.68 50.019 21.5 87.641 4.14 87.641 4.14s36.793-14.88 96.738 5.79c49.199 14.06 84.754-8.68 84.754-8.68s49.199-23.15 123.196-7.86c71.1 11.58 177.35-58.29 187.7-84.75 3.7 6.61 15.28 78.14-92.21 109.14-54.56 13.64-36.8 44.24-25.63 57.06 11.17 12.81 31.84 30.59 58.29 42.99 26.46 12.4 50.45 46.3 56.23 95.08-1.65 2.48-26.87-28.52-40.51-35.14-31.02-19.42-84.35-19.42-127.75-81.03-44.24-57.04-71.94-55.39-99.215-55.8-27.281-.42-45.894 27.69-26.461 53.32 19.438 25.63 36.375 28.53 74.836 39.28 38.44 10.75 95.08 23.15 96.32 97.15-21.91-21.08-45.48-53.33-96.32-58.29-50.847-4.96-75.246 0-109.148-30.18s-59.531-111.21-124.027-90.95c-47.125 20.26-18.184 62.42-11.973 67.8 6.191 5.37 26.859 25.63 84.32 34.72 57.473 9.1 95.5 37.62 104.18 79.38-31-21.9-52.91-40.1-120.297-36.8-67.395 3.31-79.789-15.29-113.691-48.78-33.903-33.48-21.911-91.77-98.797-97.56-56.645 6.2-37.625 57.05-30.602 71.93 23.57 30.6 23.981 35.15 108.731 64.08 44.656 16.95 52.507 34.73 61.175 56.23-12.808-9.1-43.398-22.33-90.117-26.88-46.722-4.54-102.929-1.64-143.043-93.43-40.097-91.78-90.945-81.44-90.945-81.44" style="fill:#050301;fill-opacity:1;fill-rule:nonzero;stroke:none" transform="matrix(.03528 0 0 -.03528 0 101.24)"/><path d="M1331.46 1068.74h131.76s6.41-516.451-530.286-567.349v139.75s372.486 9.898 398.526 427.599" style="fill:#ed1c24;fill-opacity:1;fill-rule:nonzero;stroke:none" transform="matrix(.03528 0 0 -.03528 0 101.24)"/><path d="M3.781 1395.63h136.793S194.91 668.77 897.66 638.539v-136.25S84.828 490.379 3.781 1395.63" style="fill:#fff200;fill-opacity:1;fill-rule:nonzero;stroke:none" transform="matrix(.03528 0 0 -.03528 0 101.24)"/><path d="M1383.92 0v140.012c685.9 0 1243.93 580.886 1243.93 1294.888 0 714.02-558.03 1294.91-1243.93 1294.91C698.023 2729.81 140 2148.92 140 1434.9H0c0 791.21 620.824 1434.91 1383.92 1434.91 763.09 0 1383.93-643.7 1383.93-1434.91C2767.85 643.699 2147.01 0 1383.92 0" style="fill:#050301;fill-opacity:1;fill-rule:nonzero;stroke:none" transform="matrix(.03528 0 0 -.03528 0 101.24)"/><path d="m714.605 1052.39 5.379-35.96-42.171-44.239s37.203 2.887 35.14-16.523c9.09-8.688 22.738-38.887-10.742-45.898-2.91 14.468-8.699 16.109-8.699 16.109s-14.469-5.777-24.379 9.93c-6.617 2.07-1.66-11.161 1.238-11.981 2.891-.84 19.016-20.66-.828-33.488 2.891-11.578 4.961-22.328 4.961-22.328s-26.871-5.371-36.383 21.898c-11.988 14.488-9.098 19.449-1.234 32.258 7.843 12.82-8.696 11.57-7.864.82.832-10.758-2.89-27.687-22.32-23.957-2.89-7.871-2.89-22.761-2.89-22.761s-33.903 1.242-23.149 43.421C565.77 944.91 591.82 945.32 591.82 945.32s18.606-1.66 19.016 7.871c-.82 4.547-12.813-1.66-12.813-1.66s-8.273-5.39-19.418 5.778c-11.171 11.152-16.132-2.891-17.382-5.778-1.243-2.91-22.731 30.168 19.441 40.508 14.469 9.081 29.352-2.891 29.352-2.891s18.605-18.207 28.937-4.546c10.34 13.628 48.371 63.648 48.371 63.648l27.281 4.14" style="fill:#050301;fill-opacity:1;fill-rule:nonzero;stroke:none" transform="matrix(.03528 0 0 -.03528 0 101.24)"/><path d="m706.754 1041.24 1.648-20.69-47.129-56.62s54.161 4.941 39.278-15.309c-9.93-21.082-11.574-14.883-25.219-6.621-7.859 7.871-11.168 7.871-18.187 1.25-7.024-6.602-2.071-11.578 2.89-19.012 4.961-7.457 18.188-26.047-3.722-25.617-21.911.41-16.532 9.488-8.27 21.891 2.48 16.136-11.156 20.668-14.879 21.078-3.723.41-15.305-1.231-13.652-17.352 1.66-16.129-9.086-23.136-19.008-11.578-9.934 11.578-24.801 19.442-1.652 22.738 23.152 3.301 23.98 11.993 21.082 21.52-2.903 9.492-14.051 10.723-26.043 3.301-16.95-2.071-9.094 14.449-9.094 14.449s.406 19.441 24.387 6.602c18.609-12.399 24.39-15.29 33.066-7.442 8.691 7.871 52.09 65.752 52.09 65.752l12.414 1.66" style="fill:#ef3233;fill-opacity:1;fill-rule:nonzero;stroke:none" transform="matrix(.03528 0 0 -.03528 0 101.24)"/><path d="m706.754 1041.24 1.648-20.69-47.129-56.62s54.161 4.941 39.278-15.309c-9.93-21.082-11.574-14.883-25.219-6.621-7.859 7.871-11.168 7.871-18.187 1.25-7.024-6.602-2.071-11.578 2.89-19.012 4.961-7.457 18.188-26.047-3.722-25.617-21.911.41-16.532 9.488-8.27 21.891 2.48 16.136-11.156 20.668-14.879 21.078-3.723.41-15.305-1.231-13.652-17.352 1.66-16.129-9.086-23.136-19.008-11.578-9.934 11.578-24.801 19.442-1.652 22.738 23.152 3.301 23.98 11.993 21.082 21.52-2.903 9.492-14.051 10.723-26.043 3.301-16.95-2.071-9.094 14.449-9.094 14.449s.406 19.441 24.387 6.602c18.609-12.399 24.39-15.29 33.066-7.442 8.691 7.871 52.09 65.752 52.09 65.752z" style="fill:none;stroke:#ef3233;stroke-width:5;stroke-linecap:butt;stroke-linejoin:miter;stroke-miterlimit:4;stroke-dasharray:none;stroke-opacity:1" transform="matrix(.03528 0 0 -.03528 0 101.24)"/><path d="M560.816 967.23s-.425 12.399 14.887 12.399l.41-9.918-15.297-2.481M586.852 910.199s-4.957-15.738 5.8-20.289c4.961-.82 4.961 13.258 4.961 13.258l-10.761 7.031M648.461 889.5s.832-14.051 13.223-14.891c.832 7.879-2.059 10.77-2.469 13.661-.422 2.89-10.754 1.23-10.754 1.23M705.512 923.398l-6.621 9.114 10.343 10.738s15.286-12.82-.832-21.082c-2.058 0-2.89 1.23-2.89 1.23" style="fill:#ef3233;fill-opacity:1;fill-rule:nonzero;stroke:none" transform="matrix(.03528 0 0 -.03528 0 101.24)"/><path d="M6994.83 1199.67c-24.28 11.94-52.28 17.91-84 17.91-60.85 0-109.58-25.39-146.16-76.15-24.64-34.35-36.96-76.35-36.96-126 0-50.782 11.56-93.899 34.73-129.352 17.54-26.148 39.37-45.738 65.51-58.808 21.28-10.45 45.54-15.68 72.81-15.68 33.95 0 65.88 8.019 95.75 24.078 14.92 8.203 26.5 17.172 34.73 26.871v89.609c1.47 4.852 4.56 8.133 9.23 9.813 4.66 1.68 8.12 2.891 10.36 3.629a259.954 259.954 0 0 0 15.68 5.039c3.72 1.859 5.6 4.301 5.6 7.293 0 1.476-.93 3.629-2.8 6.437-1.87 2.789-5.98 3.809-12.31 3.071h-85.69c-8.22.738-13.26-.75-15.11-4.481-.77-1.5-1.13-2.98-1.13-4.488 0-2.992 1.68-5.41 5.04-7.262.74-.39 6.72-2.621 17.92-6.719 7.46-2.621 11.95-6 13.44-10.082.74-1.878 1.12-5.429 1.12-10.636v-77.293c-6.72-6.348-12.7-11.02-17.92-14-20.53-11.957-45.17-17.91-73.91-17.91-29.12 0-54.89 10.07-77.29 30.23-34.72 30.981-52.08 79.512-52.08 145.611 0 41.05 7.08 76.71 21.28 106.95 11.2 25.02 25.94 44.04 44.24 57.13 19.78 14.18 43.49 21.27 71.12 21.27 22.77 0 42.18-3.73 58.24-11.19 9.7-4.5 16.8-12.89 21.28-25.2l6.72-18.5 7.29-19.04c2.98-5.58 6.34-8.4 10.08-8.4 7.08 0 10.63 6.18 10.63 18.5v50.96c-12.69 8.2-21.84 13.8-27.44 16.79zm-378.3-19.04c7.81-5.98 13.2-10.64 16.17-14 11.52-13.44 17.29-32.48 17.29-57.11 0-40.71-14.69-67.78-44.05-81.21-15.6-7.09-42.18-10.63-79.71-10.63v173.59c47.19.75 77.29-2.81 90.3-10.64zM6448.1 830.898c-2.05-2.418-3.08-4.199-3.08-5.308 0-4.86 6.35-7.281 19.05-7.281h85.11c10.83 0 16.24 2.609 16.24 7.851 0 4.102-2.61 6.891-7.84 8.399l-17.92 5.582c-8.21 2.621-12.68 7.66-13.43 15.14v139.43h44.79l92.4-176.402h57.68c6.36-.75 10.83.171 13.45 2.812 1.11 1.848 1.68 3.16 1.68 3.899 0 3.359-2.44 6.179-7.29 8.398l-23.52 7.293c-8.59 2.617-15.11 8.219-19.59 16.801l-77.85 146.168c15.32 6.72 25.2 11.56 29.68 14.55 11.95 7.85 22.03 17.36 30.25 28.55 14.18 19.42 21.27 39.94 21.27 61.6 0 28.38-8.02 51.7-24.08 70-10.83 12.33-24.83 21.29-42 26.9-8.58 2.6-19.04 4.47-31.36 5.58-9.32.75-18.67 1.14-27.99 1.14h-103.61c-6.72 0-11.2-1.14-13.44-3.36-.75-2.99-1.12-4.32-1.12-3.93 0-4.86 3.36-8.22 10.08-10.08l18.49-5.03c8.2-3.36 12.68-9.17 13.43-17.37V853.031c-.75-5.23-4.28-8.961-10.64-11.211l-15.12-5.039c-7.09-1.48-11.67-3.453-13.72-5.883zm-137.3 373.252c0-5.22 4.28-9.14 12.88-11.76 16.42-5.24 25.28-9.44 26.59-12.6 1.32-3.18 1.96-7.75 1.96-13.71V944.301c0-39.199-8.48-67.481-25.48-84.821-16.99-17.371-42.27-26.062-75.88-26.062-48.16 0-78.21 19.301-90.16 57.852-3.36 10.859-5.04 26.218-5.04 46.058v228.592c0 8.25 1.21 13.77 3.64 16.59 2.43 2.79 7.76 5.33 15.96 7.57 8.21 2.25 13.72 4.32 16.52 6.18 2.8 1.89 4.2 3.94 4.2 6.19 0 6.34-4.11 9.55-12.31 9.55h-100.25c-4.48-1.14-6.91-3.38-7.27-6.74 0-4.12 5.04-7.87 15.11-11.23 13.44-4.51 21.28-7.7 23.52-9.55 2.25-1.88 3.36-5.43 3.36-10.69V942.988c0-30.699 4.48-54.66 13.45-71.867 10.45-20.223 27.8-35.762 52.08-46.621 20.9-8.969 44.24-13.461 70-13.461 35.08 0 64.02 8.57 86.79 25.742 16.8 13.071 28.75 29.321 35.84 48.731 5.24 14.547 7.85 34.34 7.85 59.359v223.999c-.38 6.35.18 10.45 1.67 12.33 3.36 2.97 5.97 4.84 7.85 5.58l21.28 7.29c6.71 1.85 10.07 4.67 10.07 8.4 0 2.61-.84 4.86-2.52 6.71-1.68 1.88-5.13 2.82-10.36 2.82h-91.28c-6.71-1.51-10.07-4.12-10.07-7.85zm-431.75-12.88c8.19.38 20.9.55 38.07.55 26.13 0 44.98-5.04 56.57-15.12 15.29-13.06 22.96-31.73 22.96-55.99 0-26.88-7.1-47.03-21.28-60.47-11.97-11.21-28.21-16.82-48.72-16.82h-47.6zm54.51-169.12c17.99 0 33.16-2.44 45.54-7.28 20.98-8.22 35.59-22.952 43.83-44.241 4.13-10.078 6.2-22.231 6.2-36.41.37-19.41-4.13-37.321-13.51-53.75-9.74-17.547-22.86-29.309-39.34-35.27-10.86-4.121-27.73-6.168-50.59-6.168-20.61 0-32.41.367-35.41 1.11-7.5 1.879-11.23 8.597-11.23 20.179v161.83zm51.33-198.798c28.73 6.707 50.95 23.328 66.63 49.839 11.57 19.411 17.36 40.508 17.36 63.278 0 33.961-11.96 59.922-35.84 77.831-6.36 4.87-13.44 9.14-21.28 12.89-4.11 1.86-11.76 5.04-22.96 9.51 6.72 3.36 14.93 9.71 24.64 19.05 16.8 16.05 25.2 37.15 25.2 63.28 0 34.73-14 60.66-41.99 77.85-17.19 10.45-40.53 15.66-70 15.66H5815.2c-8.59 0-13.44-1.01-14.56-3.06-1.11-2.07-1.68-3.65-1.68-4.77 0-2.61 1.12-4.76 3.36-6.44 2.25-1.68 8.76-3.83 19.6-6.45 9.33-2.22 15.13-5.58 17.36-10.08.74-1.85 1.13-5.97 1.13-12.3V862.539c1.11-10.07-2.81-16.891-11.77-20.43-8.96-3.55-15.88-5.699-20.72-6.441-5.98-1.879-9.15-4.859-9.52-8.969 0-5.578 5.04-8.39 15.12-8.39h89.6c40.32 0 67.57 1.679 81.77 5.043zm-337.3-11.762c25.01 0 48.17 5.801 69.45 17.359 21.28 11.563 37.7 27.813 49.27 48.731 8.96 16.41 13.44 33.199 13.44 50.39 0 34.731-18.67 64.571-56 89.61-8.59 5.59-22.03 13.24-40.32 22.95-18.29 9.71-31.73 17.36-40.32 22.97-28 18.65-42 40.31-42 64.96 0 11.56 3.55 22.58 10.64 33.03 13.81 20.15 36.77 30.23 68.88 30.23 20.92 0 35.28-3.53 43.12-10.62 3.74-3.36 6.91-8.03 9.53-14.01.74-2.24 2.6-7.75 5.59-16.52 2.99-8.77 5.61-14.1 7.84-15.96 2.24-1.87 4.49-2.79 6.72-2.79 5.97 0 9.33 5.41 10.08 16.23 0-2.62-.75 3.73-2.24 19.04-.75 7.46-1.49 18.85-2.24 34.16-26.88 10.82-50.21 16.23-70 16.23-37.71 0-68.13-9.88-91.28-29.66-20.16-17.19-30.24-40.88-30.24-71.14 0-31.74 13.63-58.04 40.88-78.94 25.01-16.08 42.75-26.9 53.21-32.48 32.84-16.801 54.31-30.801 64.39-42.008 13.08-14.563 19.6-30.063 19.6-46.473 0-13.09-3.73-25.59-11.2-37.52-16.8-26.89-42.56-40.328-77.28-40.328-16.79 0-29.67 2.047-38.64 6.168-7.09 2.969-14.09 11.371-20.99 25.199a1806.214 1806.214 0 0 0-19.33 39.743c-2.24 2.25-4.84 3.359-7.83 3.359-4.86 0-7.76-1.211-8.68-3.629-.94-2.422-1.41-4.019-1.41-4.769 0-2.993.57-7.653 1.68-13.981l8.96-50.98 2.81-11.762c28.75-11.188 53.39-16.789 73.91-16.789zm-175.54 388.08c-24.28 11.94-52.28 17.91-84.01 17.91-60.86 0-109.58-25.39-146.16-76.15-24.64-34.35-36.95-76.35-36.95-126 0-50.782 11.56-93.899 34.71-129.352 17.54-26.148 39.38-45.738 65.52-58.808 21.28-10.45 45.54-15.68 72.8-15.68 33.97 0 65.89 8.019 95.77 24.078 14.93 8.203 26.49 17.172 34.71 26.871v89.609c1.5 4.852 4.57 8.133 9.24 9.813 4.66 1.68 8.13 2.891 10.36 3.629a262.548 262.548 0 0 0 15.69 5.039c3.73 1.859 5.59 4.301 5.59 7.293 0 1.476-.94 3.629-2.8 6.437-1.87 2.789-5.98 3.809-12.32 3.071h-85.68c-8.22.738-13.26-.75-15.12-4.481-.75-1.5-1.12-2.98-1.12-4.488 0-2.992 1.68-5.41 5.04-7.262.74-.39 6.73-2.621 17.92-6.719 7.46-2.621 11.94-6 13.45-10.082.73-1.878 1.11-5.429 1.11-10.636v-77.293c-6.72-6.348-12.7-11.02-17.92-14-20.54-11.957-45.18-17.91-73.92-17.91-29.12 0-54.88 10.07-77.28 30.23-34.72 30.981-52.08 79.512-52.08 145.611 0 41.05 7.09 76.71 21.28 106.95 11.2 25.02 25.95 44.04 44.25 57.13 19.77 14.18 43.48 21.27 71.11 21.27 22.77 0 42.19-3.73 58.24-11.19 9.7-4.5 16.8-12.89 21.28-25.2l6.72-18.5 7.28-19.04c2.98-5.58 6.34-8.4 10.08-8.4 7.09 0 10.64 6.18 10.64 18.5v50.96c-12.7 8.2-21.84 13.8-27.43 16.79zm-405.23-372.4c0-6.352 3.93-9.508 11.76-9.508h96.88c8.59 1.476 12.88 4.097 12.88 7.828 0 3.73-2.8 6.519-8.39 8.398l-21.28 7.282c-4.86 1.859-7.93 3.742-9.25 5.609-1.31 1.859-1.95 5.59-1.95 11.191v316.95c.75 6.72 5.03 11.59 12.88 14.58l20.71 5.6c4.48 1.86 6.72 4.47 6.72 7.83 0 5.22-4.85 7.83-14.55 7.83h-98.01c-5.6 0-8.4-2.61-8.4-7.83 0-2.61 2.99-5.6 8.97-8.96l20.71-5.61c5.6-1.48 9.33-5.04 11.2-10.62V851.918c-.75-5.609-3.92-9.156-9.52-10.648l-14.56-4.489c-11.19-1.851-16.8-5.043-16.8-9.511zm-523.43 376.33c0-4.47 3.73-8.03 11.2-10.63 13.44-2.59 22.04-5.31 25.77-8.1 3.73-2.81 6.72-8.5 8.95-17.05l99.12-354.55h12.33c9.32 35.039 20.71 76.23 34.16 123.57 17.55 61.512 30.6 107.72 39.2 138.65 6.34 24.61 13.62 56.86 21.83 96.74 8.97-40.31 16.06-70.94 21.28-91.83 14.56-54.14 25.76-94.65 33.6-121.529 16.8-59.742 30.05-108.262 39.76-145.601h11.76l80.64 279.45 14.56 51.5 8.96 30.26c3.36 7.09 8.96 11.93 16.81 14.55l16.24 5.6c6.71 1.49 10.07 4.85 10.07 10.08 0 4.47-3.55 6.72-10.64 6.72h-83.44c-7.09 0-11.76-1.31-13.99-3.92-1.13-1.12-1.69-2.43-1.69-3.91 0-5.24 5.6-9.16 16.8-11.78 4.85-1.11 9.9-2.42 15.12-3.9 3.36-1.88 4.67-6.18 3.93-12.9l-20.17-77.83c-13.81-50.78-24.45-88.67-31.91-113.67-8.6-32.129-15.88-61.418-21.85-87.93-7.09 36.578-18.29 83.238-33.6 140-21.28 77.66-33.79 124.12-37.52 139.43-.74 6.35 1.68 10.83 7.28 13.44l12.88 6.17c4.85 3.73 7.65 6.72 8.4 8.97 0 1.48-.65 3.07-1.96 4.75-1.31 1.67-4 2.71-8.11 3.08h-89.05c-6.72 0-10.73-.94-12.04-2.79-1.31-1.88-1.96-3.36-1.96-4.49 0-3.73 3.92-7.47 11.77-11.2 4.1-1.87 8.2-3.75 12.31-5.6 2.62-1.88 3.73-5.78 3.36-11.76-8.2-32.11-18.66-70.94-31.36-116.48a58659.56 58659.56 0 0 0-26.87-94.63c-5.24-19.441-10.28-42.011-15.13-67.781-17.17 68.321-30.43 119.481-39.76 153.441-14.18 53.4-24.83 93.34-31.92 119.85-1.12 4.49-1.68 7.46-1.68 8.96 0 4.1 3.36 7.29 10.08 9.51l10.09 3.36c7.09 1.51 11.67 3.38 13.72 5.61 2.04 2.24 3.07 4.1 3.07 5.6 0 .74-.75 2.33-2.24 4.77-1.49 2.42-5.4 3.63-11.76 3.63h-92.4c-9.33 0-14-2.62-14-7.83zm-113.56-24.08c16.81-7.11 31.74-17.76 44.8-31.94 29.87-32.11 44.98-75.78 45.37-131.03.37-59.359-16.25-105.28-49.85-137.761-14.19-13.82-30.98-23.711-50.4-29.68-9.71-2.988-22.22-5.238-37.52-6.718-7.84-.743-15.31-1.121-22.4-1.121h-14.56c-15.3 0-24.64 1.761-28 5.32-3.36 3.531-4.47 7.73-3.36 12.59v332.09h48.17c26.87 0 49.45-3.92 67.75-11.75zm9.8-350.84c20.35 6.89 39.66 18.379 57.96 34.429 43.3 38.09 64.96 87.93 64.96 149.511 0 41.45-10.07 79.34-30.24 113.69-21.66 36.2-50.78 61.21-87.35 75.04-20.92 7.83-45.75 11.76-74.49 11.76h-120.95c-7.85 0-12.71-1.5-14.56-4.47-1.13-1.51-1.68-3.19-1.68-5.04 0-4.12 2.79-7.01 8.39-8.69 5.6-1.68 11.01-3.26 16.25-4.77 7.46-1.85 12.4-4.1 14.83-6.72 2.42-2.61 3.26-7.09 2.52-13.43V859.18c.74-7.828-1.68-13.43-7.28-16.789l-24.08-8.403c-7.1 0-10.63-2.789-10.63-8.398 0-1.5.55-2.789 1.68-3.918 1.48-2.231 4.84-3.363 10.07-3.363h113.12c33.97 0 61.13 3.453 81.48 10.371zm-341.66 375.47c0-5.22 4.29-9.14 12.88-11.76 16.43-5.24 25.29-9.44 26.61-12.6 1.3-3.18 1.95-7.75 1.95-13.71V944.301c0-39.199-8.49-67.481-25.48-84.821-16.99-17.371-42.27-26.062-75.88-26.062-48.16 0-78.21 19.301-90.15 57.852-3.36 10.859-5.04 26.218-5.04 46.058v228.592c0 8.25 1.21 13.77 3.63 16.59 2.43 2.79 7.75 5.33 15.97 7.57 8.2 2.25 13.72 4.32 16.51 6.18 2.8 1.89 4.2 3.94 4.2 6.19 0 6.34-4.1 9.55-12.32 9.55h-100.24c-4.47-1.14-6.9-3.38-7.28-6.74 0-4.12 5.04-7.87 15.12-11.23 13.44-4.51 21.28-7.7 23.53-9.55 2.23-1.88 3.36-5.43 3.36-10.69V942.988c0-30.699 4.47-54.66 13.43-71.867 10.45-20.223 27.82-35.762 52.08-46.621 20.91-8.969 44.24-13.461 70-13.461 35.09 0 64.04 8.57 86.8 25.742 16.81 13.071 28.75 29.321 35.84 48.731 5.24 14.547 7.84 34.34 7.84 59.359v223.999c-.37 6.35.19 10.45 1.68 12.33 3.36 2.97 5.97 4.84 7.84 5.58l21.28 7.29c6.72 1.85 10.08 4.67 10.08 8.4 0 2.61-.84 4.86-2.52 6.71-1.68 1.88-5.12 2.82-10.36 2.82h-91.28c-6.72-1.51-10.08-4.12-10.08-7.85zM3657.5 843.789c-2.25-1.68-8.4-3.82-18.48-6.437-13.09-3.364-19.81-7.09-20.17-11.192 0-1.14.74-2.808 2.24-5.039 1.48-2.25 7.09-3.359 16.81-3.359h219.52l15.11 61.027c1.48 9.34.37 14.75-3.36 16.231-1.88.75-3.35 1.14-4.48 1.14-4.48 0-8.95-3.558-13.44-10.648-5.98-8.961-10.28-15.5-12.88-19.614-5.98-10.449-9.71-16.418-11.2-17.91-7.48-4.859-13.07-7.476-16.79-7.847h-98.01c-6.36 2.25-10.08 6.918-11.19 14.007v319.762c.35 4.1 1.11 7.29 2.23 9.51 5.23 2.99 9.32 4.87 12.32 5.61 13.81 3.73 22.02 6.89 24.65 9.53.73.72 1.29 2.23 1.68 4.47 0 2.62-.67 4.77-1.97 6.45-1.32 1.68-5.88 2.52-13.72 2.52h-87.92c-9.33 0-14.76-1.04-16.24-3.09-1.49-2.05-2.23-4.2-2.23-6.44 0-2.99 1.85-5.41 5.59-7.27.74-.39 7.08-2.07 19.04-5.06 8.59-2.62 13.63-5.78 15.12-9.51 1.48-3.73 2.42-6.54 2.8-8.4V854.711c-1.12-5.602-2.8-9.242-5.03-10.922M6120.17 1431.59c25.01 0 48.16 5.79 69.44 17.36s37.71 27.81 49.28 48.72c8.97 16.42 13.44 33.22 13.44 50.4 0 34.72-18.66 64.58-56 89.6-8.59 5.6-22.03 13.25-40.32 22.96-18.29 9.7-31.73 17.36-40.32 22.96-28 18.66-41.99 40.32-41.99 64.96 0 11.57 3.54 22.58 10.63 33.04 13.81 20.16 36.77 30.24 68.88 30.24 20.92 0 35.28-3.55 43.12-10.64 3.73-3.36 6.92-8.03 9.52-14 .76-2.24 2.61-7.75 5.6-16.52 2.99-8.78 5.61-14.1 7.84-15.96 2.24-1.87 4.48-2.8 6.72-2.8 5.97 0 9.34 5.41 10.08 16.24 0-2.62-.74 3.73-2.24 19.04-.75 7.46-1.49 18.85-2.23 34.16-26.89 10.82-50.22 16.24-70 16.24-37.72 0-68.14-9.9-91.28-29.68-20.17-17.18-30.25-40.88-30.25-71.12 0-31.74 13.64-58.06 40.88-78.96 25.01-16.06 42.76-26.88 53.2-32.48 32.86-16.8 54.32-30.8 64.4-42 13.08-14.56 19.6-30.06 19.6-46.48 0-13.07-3.73-25.58-11.19-37.52-16.81-26.88-42.57-40.32-77.29-40.32-16.79 0-29.68 2.05-38.64 6.16-7.09 2.98-14.09 11.38-21 25.2-6.91 13.81-13.35 27.06-19.32 39.76-2.24 2.24-4.85 3.36-7.83 3.36-4.86 0-7.76-1.22-8.69-3.64-.92-2.43-1.39-4.02-1.39-4.76 0-2.99.55-7.66 1.68-14l8.95-50.96 2.8-11.76c28.75-11.2 53.39-16.8 73.92-16.8zm-227.8 15.68c0-6.35 3.92-9.52 11.77-9.52h96.87c8.58 1.49 12.88 4.1 12.88 7.84 0 3.73-2.8 6.53-8.4 8.4l-21.28 7.28c-4.86 1.86-7.94 3.73-9.23 5.6-1.31 1.86-1.97 5.6-1.97 11.2v316.96c.74 6.72 5.04 11.57 12.88 14.56l20.73 5.6c4.47 1.86 6.71 4.48 6.71 7.84 0 5.22-4.86 7.84-14.56 7.84h-97.99c-5.61 0-8.41-2.62-8.41-7.84 0-2.62 2.99-5.6 8.96-8.96l20.73-5.6c5.59-1.5 9.32-5.04 11.2-10.64v-325.92c-.76-5.6-3.93-9.15-9.52-10.64l-14.57-4.48c-11.2-1.87-16.8-5.04-16.8-9.52zm-272.22 377.44c0-5.23 4.67-8.96 14.01-11.2 12.68-3.36 20.35-5.98 22.95-7.84 4.12-3.36 5.6-7.84 4.49-13.44v-310.8c.36-5.98 0-10.46-1.13-13.44-1.12-2.99-3.17-5.04-6.16-6.16-.75-.38-3.73-1.31-8.95-2.8l-11.77-3.36c-9.33-2.62-14-5.6-14-8.96-.37-5.6 2.61-8.4 8.96-8.4h229.04l4.49 14.56 10.63 45.36c1.12 2.98 1.68 5.97 1.68 8.96 0 6.34-3.16 9.52-9.52 9.52-4.1 0-9.71-5.98-16.8-17.92-8.95-13.44-15.77-23.24-20.44-29.4-4.67-6.16-13.52-9.24-26.6-9.24h-79.52c-9.33.74-15.12 2.52-17.35 5.32-2.25 2.8-3.36 8.49-3.36 17.08v143.36h99.12c7.09 0 11.75-.75 13.99-2.24 2.25-1.5 4.29-5.23 6.16-11.2l5.04-17.36c1.87-5.98 4.67-8.96 8.4-8.96 5.97 0 8.97 5.97 8.97 17.92v70c0 8.21-1.68 13.06-5.04 14.56-.76.74-2.05 1.12-3.93 1.12-2.99 0-5.41-2.06-7.27-6.16-.38-.75-1.88-5.98-4.49-15.68-2.23-7.47-4.28-12.32-6.16-14.56-1.86-2.24-5.04-3.36-9.52-3.36h-104.72v159.6h108.08c11.2 0 18.86-4.11 22.96-12.32 1.12-2.24 2.61-7.28 4.48-15.12 1.88-5.98 3.93-10.18 6.16-12.6 2.24-2.43 4.67-3.64 7.29-3.64 5.22 0 7.83 4.48 7.83 13.44 0 1.49-.56 8.02-1.68 19.6-1.11 14.56-2.05 25.38-2.79 32.48l-222.88.56c-7.09-.75-10.65-3.18-10.65-7.28zm-137.76-24.08c7.79-5.98 13.18-10.64 16.16-14 11.51-13.44 17.28-32.48 17.28-57.12 0-40.7-14.67-67.76-44.04-81.2-15.6-7.1-42.18-10.64-79.71-10.64v173.6c47.19.74 77.29-2.8 90.31-10.64zm-168.44-349.72c-2.06-2.43-3.08-4.2-3.08-5.32 0-4.86 6.34-7.28 19.05-7.28h85.11c10.82 0 16.24 2.61 16.24 7.84 0 4.1-2.61 6.9-7.84 8.4l-17.92 5.6c-8.22 2.61-12.69 7.65-13.43 15.12v139.44h44.79l92.4-176.4h57.68c6.35-.75 10.82.18 13.45 2.8 1.11 1.86 1.68 3.17 1.68 3.92 0 3.36-2.44 6.16-7.29 8.4l-23.52 7.28c-8.59 2.61-15.11 8.21-19.6 16.8l-77.84 146.16c15.31 6.72 25.2 11.57 29.68 14.56 11.94 7.84 22.02 17.36 30.24 28.56 14.18 19.41 21.28 39.94 21.28 61.6 0 28.37-8.02 51.7-24.08 70-10.83 12.32-24.83 21.28-42 26.88-8.58 2.61-19.03 4.48-31.36 5.6-9.33.74-18.67 1.12-28 1.12h-103.6c-6.72 0-11.2-1.12-13.44-3.36-.75-2.99-1.12-4.3-1.12-3.92 0-4.86 3.36-8.22 10.08-10.08l18.49-5.04c8.2-3.36 12.68-9.15 13.43-17.36v-319.2c-.75-5.23-4.29-8.96-10.63-11.2l-15.13-5.04c-7.1-1.5-11.67-3.46-13.72-5.88zm-322.17-4.76c0-1.5.37-2.99 1.13-4.48 1.48-2.62 5.22-3.92 11.2-3.92h97.44c5.22 0 8.77 1.68 10.63 5.04.75.74 1.13 2.05 1.13 3.92 0 3.36-2.62 5.97-7.85 7.84-3.36 1.49-8.77 3.17-16.24 5.04-7.47 1.86-11.95 3.36-13.43 4.48-2.62 2.24-3.93 9.14-3.93 20.72v160.16l114.24-151.61c13.82-18.73 20.72-28.64 20.72-29.76 0-2.63-3.91-4.5-11.76-5.62-13.06-2.99-19.6-6.55-19.6-10.67 0-1.5.84-3.46 2.52-5.89 1.68-2.44 6.07-3.65 13.16-3.65h93.52c6.72.74 10.08 3.17 10.08 7.29 0 5.61-5.51 9.53-16.51 11.77-11.02 2.24-19.33 5.8-24.92 10.66-6.72 7.47-11.58 13.46-14.56 17.95-9.34 12.34-16.25 21.49-20.73 27.47l-71.12 95.9-35.84 45.42 97.44 119.46c16.06 19.81 28.28 31.39 36.68 34.76 8.4 3.36 15.03 5.89 19.88 7.57 4.86 1.68 7.28 4.03 7.28 7.02 0 2.24-.65 4.29-1.95 6.16-1.31 1.87-5.88 2.81-13.72 2.81h-73.36c-7.48 0-11.86-.84-13.17-2.52-1.31-1.68-1.96-3.64-1.96-5.88 0-3.36 6.36-6.91 19.04-10.64 7.09-1.87 10.65-5.42 10.65-10.64 0-1.5-5.09-8.59-15.26-21.28l-31.65-39.2-69.49-83.44-9.61-12.88v147.84c.39 5.22 1.83 8.77 4.33 10.64 2.49 1.86 8.62 4.2 18.4 7 9.79 2.8 15.45 5.32 17 7.56 1.13 1.12 1.72 2.61 1.72 4.48 0 4.48-3.56 7.46-10.65 8.96h-99.68c-7.47 0-11.2-2.8-11.2-8.4 0-3.36 5.13-6.72 15.4-10.08 10.28-3.36 16.8-5.79 19.6-7.28 2.8-1.5 4.77-3.36 5.88-5.6.37-.75.75-2.8 1.12-6.16v-312.48c0-10.08-3.92-17.18-11.75-21.28l-12.88-4.48c-11.58-4.11-17.37-7.47-17.37-10.08zm-147 353.36c16.81-7.1 31.73-17.74 44.8-31.92 29.87-32.11 45-75.79 45.37-131.04.37-59.36-16.24-105.28-49.85-137.76-14.19-13.82-30.98-23.71-50.4-29.68-9.7-2.99-22.2-5.23-37.52-6.72-7.84-.75-15.31-1.12-22.4-1.12h-14.56c-15.3 0-24.64 1.77-28 5.32-3.36 3.54-4.48 7.74-3.36 12.6v332.08h48.17c26.87 0 49.46-3.92 67.75-11.76zm9.8-350.84c20.36 6.9 39.67 18.38 57.96 34.44 43.31 38.08 64.96 87.92 64.96 149.52 0 41.44-10.07 79.33-30.24 113.68-21.65 36.21-50.77 61.22-87.35 75.04-20.92 7.84-45.74 11.76-74.49 11.76h-120.95c-7.84 0-12.7-1.5-14.56-4.48-1.13-1.5-1.68-3.18-1.68-5.04 0-4.11 2.79-7 8.4-8.68 5.59-1.68 11-3.27 16.24-4.76 7.47-1.87 12.4-4.11 14.83-6.72 2.43-2.62 3.27-7.1 2.52-13.44v-310.8c.75-7.84-1.68-13.44-7.28-16.8l-24.08-8.4c-7.09 0-10.63-2.8-10.63-8.4 0-1.5.55-2.8 1.68-3.92 1.48-2.24 4.84-3.36 10.08-3.36h113.11c33.98 0 61.13 3.45 81.48 10.36zm-598.13 376.02c0-3.74 3.36-6.93 10.08-9.55 5.6-1.87 11.2-3.56 16.8-5.05 7.09-2.63 11.58-6 13.44-10.11 1.13-2.62 1.68-6.19 1.68-10.67v-309.44c0-7.12-.93-11.8-2.8-14.04-10.45-5.62-18.67-8.81-24.64-9.55-9.33-2.25-14.19-5.99-14.56-11.23-.37-4.5 2.43-6.74 8.4-6.74h92.97c7.09 0 10.63 2.61 10.63 7.86 0 4.13-2.76 7.13-8.29 9l-14.36 3.37c-5.17 1.12-9.41 2.81-12.72 5.06-4.79 3.36-7.19 8.98-7.19 16.86v284.33c36.52-48.16 62.78-83.26 78.79-105.28l97.23-133.28 65.38-87.92h14.52v352.74c-.37 5.23.09 9.25 1.4 12.05 1.32 2.8 3.46 4.96 6.44 6.45 1.49.38 4.49 1.13 8.96 2.25 13.07 2.61 20.54 5.23 22.4 7.85 1.49 1.12 2.25 2.8 2.25 5.05 0 4.48-3 6.73-8.97 6.73h-94.64c-4.85-.75-7.28-2.81-7.28-6.17 0-4.12 3.73-7.49 11.2-10.1 1.49 0 3.46-.37 5.88-1.13 2.43-.75 4.21-1.31 5.32-1.68 10.83-3.74 16.8-7.57 17.92-11.49 1.12-3.93 1.49-7.77 1.12-11.51v-270.4l-231.28 312.48h-58.24c-4.85-.75-7.47-2.99-7.84-6.74zm-140-235.74h-123.19l62.16 179.76zm-190.96-109.76c-3.36-9.71-8.59-16.06-15.68-19.04-1.87-.75-8.58-2.62-20.16-5.6-5.96-1.12-8.96-3.74-8.96-7.84 0-4.11 3.36-6.91 10.09-8.4h86.24c4.84 0 7.83 1.3 8.95 3.92.37 1.49.56 2.8.56 3.92 0 1.49-1.49 3.73-4.47 6.72-6.35 2.98-11.12 4.94-14.29 5.88-3.17.93-6.35 2.14-9.51 3.64-3.18 1.49-4.77 4.29-4.77 8.4 0 2.61.75 5.97 2.24 10.08l11.77 33.04 9.52 25.76 6.72 21.28h141.11c8.21-22.4 15.31-42.75 21.29-61.04 6.72-20.16 10.08-30.62 10.08-31.36 0-4.86-4.86-8.59-14.56-11.2-11.96-3.36-17.92-6.91-17.92-10.64 0-4.86 3.54-7.66 10.63-8.4h94.64c5.23 1.86 7.84 4.29 7.84 7.28 0 4.1-2.61 7-7.84 8.68-5.23 1.68-10.64 3.45-16.24 5.32-5.6 1.86-9.88 4.29-12.88 7.28-1.49 2.24-2.99 5.41-4.47 9.52l-127.12 355.6h-17.37l-73.91-208.88-39.77-110.32-10.63-30.24zm-267.99-15.4c-2.25-1.68-8.4-3.83-18.48-6.44-13.09-3.36-19.81-7.1-20.17-11.2 0-1.12.74-2.8 2.24-5.04 1.48-2.24 7.09-3.36 16.81-3.36h219.52l15.11 61.04c1.48 9.33.37 14.74-3.36 16.24-1.88.74-3.35 1.12-4.48 1.12-4.48 0-8.95-3.55-13.44-10.64-5.98-8.96-10.28-15.5-12.88-19.6-5.98-10.46-9.71-16.43-11.2-17.92-7.48-4.86-13.07-7.47-16.79-7.84h-98.01c-6.36 2.24-10.08 6.9-11.19 14v319.76c.35 4.1 1.11 7.28 2.23 9.52 5.23 2.98 9.32 4.85 12.32 5.6 13.81 3.73 22.02 6.9 24.65 9.52.73.74 1.29 2.24 1.68 4.48 0 2.61-.67 4.76-1.97 6.44-1.32 1.68-5.88 2.52-13.72 2.52h-87.92c-9.33 0-14.76-1.03-16.24-3.08-1.49-2.06-2.23-4.2-2.23-6.44 0-2.99 1.85-5.42 5.59-7.28.74-.38 7.08-2.06 19.04-5.04 8.59-2.62 13.63-5.79 15.12-9.52 1.48-3.74 2.42-6.54 2.8-8.4v-317.52c-1.12-5.6-2.8-9.24-5.03-10.92" style="fill:#231f20;fill-opacity:1;fill-rule:nonzero;stroke:none" transform="matrix(.03528 0 0 -.03528 0 101.24)"/></svg>