<svg xmlns="http://www.w3.org/2000/svg" xml:space="preserve" width="232.44" height="66.147" viewBox="0 0 61.5 17.501"><path d="M171.625 9.48V1.16h-8.348v8.32h8.348M199.809 0h-10.684v10.645h10.684V0M226.824 0h-10.679v10.645h10.679V0M253.844 0h-10.68v10.645h10.68V0M117.59 36.445v-8.32h-8.352v8.32h8.352M144.609 36.445v-8.32h-8.347v8.32h8.347M173.375 38.191V26.387h-11.852V38.19h11.852M202.145 39.93V24.637h-15.348V39.93h15.348M229.164 39.93V24.637h-15.351V39.93h15.351M256.176 39.93V24.637h-15.348V39.93h15.348M90.57 63.418v-8.32h-8.347v8.32h8.347M119.34 65.156V53.36h-11.852v11.797h11.852M148.105 66.894V51.61h-15.347v15.285h15.347M175.121 66.894V51.61h-15.348v15.285h15.348M203.891 68.64V49.872h-18.848v18.77h18.848M230.914 68.64V49.872h-18.848v18.77h18.848M257.926 68.64V49.872h-18.844v18.77h18.844M63.55 90.379v-8.32H55.2v8.32h8.35M92.32 92.129V80.32H80.47V92.13H92.32M121.09 93.867V78.574h-15.348v15.293h15.348M149.859 95.613V76.836h-18.847v18.777h18.847M176.871 95.613V76.836h-18.844v18.777h18.844M36.531 117.344v-8.321h-8.347v8.321h8.347M65.3 119.09v-11.805H53.458v11.805h11.844M94.066 120.828v-15.293H78.72v15.293h15.347M122.836 122.578v-18.769h-18.848v18.769h18.848M36.531 144.316v-8.32h-8.347v8.32h8.347M67.05 147.793v-15.285H51.704v15.285h15.348M95.82 149.539V130.77H76.973v18.769H95.82M9.516 171.277v-8.316H1.168v8.316h8.348M38.285 173.027v-11.808H26.434v11.808h11.851M67.05 174.766v-15.293H51.704v15.293h15.348M95.82 176.512v-18.778H76.973v18.778H95.82M10.684 188.758H0v10.644h10.684v-10.644M40.035 201.727v-15.282H24.688v15.282h15.347M68.805 203.477v-18.782H49.957v18.782h18.848M10.684 215.73H0v10.645h10.684V215.73M40.035 228.691v-15.285H24.688v15.285h15.347M68.805 230.438v-18.77H49.957v18.77h18.848M10.684 242.695H0v10.645h10.684v-10.645M40.035 255.664v-15.293H24.688v15.293h15.347M68.805 257.402v-18.781H49.957v18.781h18.848M325.398 9.48V1.16h8.348v8.32h-8.348M307.895 10.645V0h-10.684v10.645h10.684M280.875 10.645V0h-10.684v10.645h10.684" style="fill:#fbc707;fill-opacity:1;fill-rule:nonzero;stroke:none" transform="matrix(.03528 0 0 -.03528 0 17.501)"/><path d="M253.863 10.645V0H243.18v10.645h10.683M379.434 36.445v-8.32h8.347v8.32h-8.347M352.41 36.445v-8.32h8.352v8.32h-8.352M323.648 38.191V26.387h11.848V38.19h-11.848M294.879 39.93V24.637h15.351V39.93h-15.351M267.859 39.93V24.637h15.348V39.93h-15.348M240.84 39.93V24.637h15.348V39.93H240.84M406.453 63.418v-8.32h8.348v8.32h-8.348M377.688 65.156V53.36h11.843v11.797h-11.843M348.918 66.894V51.61h15.344v15.285h-15.344M321.898 66.894V51.61h15.348v15.285h-15.348M293.129 68.64V49.872h18.848v18.77h-18.848M266.109 68.64V49.872h18.848v18.77h-18.848M239.098 68.64V49.872h18.847v18.77h-18.847M433.469 90.379v-8.32h8.347v8.32h-8.347M404.703 92.129V80.32h11.844V92.13h-11.844M375.934 93.867V78.574h15.351v15.293h-15.351M347.164 95.613V76.836h18.848v18.777h-18.848M320.152 95.613V76.836h18.84v18.777h-18.84M460.488 117.344v-8.321h8.352v8.321h-8.352M431.719 119.09v-11.805h11.851v11.805h-11.851M402.953 120.828v-15.293h15.344v15.293h-15.344M374.184 122.578v-18.769h18.847v18.769h-18.847M460.488 144.316v-8.32h8.352v8.32h-8.352M429.973 147.793v-15.285h15.343v15.285h-15.343M401.207 149.539V130.77h18.844v18.769h-18.844M487.504 171.277v-8.316h8.351v8.316h-8.351M458.738 173.027v-11.808h11.844v11.808h-11.844M429.973 174.766v-15.293h15.343v15.293h-15.343M401.207 176.512v-18.778h18.844v18.778h-18.844M497.016 199.402v-10.644H486.34v10.644h10.676M456.988 201.727v-15.282h15.348v15.282h-15.348M428.219 203.477v-18.782h18.847v18.782h-18.847M497.016 226.375V215.73H486.34v10.645h10.676M456.988 228.691v-15.285h15.348v15.285h-15.348M428.219 230.438v-18.77h18.847v18.77h-18.847M497.016 253.34v-10.645H486.34v10.645h10.676M456.988 255.664v-15.293h15.348v15.293h-15.348M428.219 257.402v-18.781h18.847v18.781h-18.847M171.625 486.582v8.32h-8.348v-8.32h8.348M189.125 485.418v10.645h10.684v-10.645h-10.684M216.145 485.418v10.645h10.679v-10.645h-10.679M243.164 485.418v10.645h10.68v-10.645h-10.68M117.59 459.617v8.317h-8.352v-8.317h8.352M144.609 459.617v8.317h-8.347v-8.317h8.347M173.375 457.875v11.809h-11.852v-11.809h11.852M202.145 456.133v15.289h-15.348v-15.289h15.348M229.164 456.133v15.289h-15.351v-15.289h15.351M256.176 456.133v15.289h-15.348v-15.289h15.348M90.57 432.656v8.317h-8.347v-8.317h8.347M119.34 430.906v11.805h-11.852v-11.805h11.852M148.105 429.164v15.289h-15.347v-15.289h15.347M175.121 429.164v15.289h-15.348v-15.289h15.348M203.891 427.426v18.769h-18.848v-18.769h18.848M230.914 427.426v18.769h-18.848v-18.769h18.848M257.926 427.426v18.769h-18.844v-18.769h18.844M63.55 405.688v8.316H55.2v-8.316h8.35M92.32 403.945v11.801H80.47v-11.801H92.32M121.09 402.195v15.293h-15.348v-15.293h15.348M149.859 400.457v18.781h-18.847v-18.781h18.847M176.871 400.457v18.781h-18.844v-18.781h18.844M36.531 378.727v8.308h-8.347v-8.308h8.347M65.3 376.98v11.805H53.458V376.98h11.844M94.066 375.238v15.289H78.72v-15.289h15.347M122.836 373.496v18.774h-18.848v-18.774h18.848M36.531 351.758v8.32h-8.347v-8.32h8.347M67.05 348.27v15.289H51.704V348.27h15.348M95.82 346.527v18.774H76.973v-18.774H95.82M9.516 324.789v8.32H1.168v-8.32h8.348M38.285 323.047v11.805H26.434v-11.805h11.851M67.05 321.305v15.293H51.704v-15.293h15.348M95.82 319.559v18.781H76.973v-18.781H95.82M0 296.664v10.641h10.684v-10.641H0M40.035 294.34v15.289H24.688V294.34h15.347M68.805 292.598v18.773H49.957v-18.773h18.848M0 269.695v10.641h10.684v-10.641H0M40.035 267.371v15.289H24.688v-15.289h15.347M68.805 265.629v18.773H49.957v-18.773h18.848M0 242.734v10.641h10.684v-10.641H0M40.035 240.41v15.289H24.688V240.41h15.347M68.805 238.66v18.781H49.957V238.66h18.848M325.398 486.582v8.32h8.348v-8.32h-8.348M297.211 496.063h10.684v-10.645h-10.684v10.645M270.191 496.063h10.684v-10.645h-10.684v10.645" style="fill:#fbc707;fill-opacity:1;fill-rule:nonzero;stroke:none" transform="matrix(.03528 0 0 -.03528 0 17.501)"/><path d="M243.18 496.063h10.683v-10.645H243.18v10.645M379.434 459.617v8.317h8.347v-8.317h-8.347M352.41 459.617v8.317h8.352v-8.317h-8.352M323.648 457.875v11.809h11.848v-11.809h-11.848M294.879 456.133v15.289h15.351v-15.289h-15.351M267.859 456.133v15.289h15.348v-15.289h-15.348M240.84 456.133v15.289h15.348v-15.289H240.84M406.453 432.656v8.317h8.348v-8.317h-8.348M377.688 430.906v11.805h11.843v-11.805h-11.843M348.918 429.164v15.289h15.344v-15.289h-15.344M321.898 429.164v15.289h15.348v-15.289h-15.348M293.129 427.426v18.769h18.848v-18.769h-18.848M266.109 427.426v18.769h18.848v-18.769h-18.848M239.098 427.426v18.769h18.847v-18.769h-18.847M433.469 405.688v8.316h8.347v-8.316h-8.347M404.703 403.945v11.801h11.844v-11.801h-11.844M375.934 402.195v15.293h15.351v-15.293h-15.351M347.164 400.457v18.781h18.848v-18.781h-18.848M320.152 400.457v18.781h18.84v-18.781h-18.84M460.488 378.727v8.308h8.352v-8.308h-8.352M431.719 376.98v11.805h11.851V376.98h-11.851M402.953 375.238v15.289h15.344v-15.289h-15.344M374.184 373.496v18.774h18.847v-18.774h-18.847M460.488 351.758v8.32h8.352v-8.32h-8.352M429.973 348.27v15.289h15.343V348.27h-15.343M401.207 346.527v18.774h18.844v-18.774h-18.844M487.504 324.789v8.32h8.351v-8.32h-8.351M458.738 323.047v11.805h11.844v-11.805h-11.844M429.973 321.305v15.293h15.343v-15.293h-15.343M401.207 319.559v18.781h18.844v-18.781h-18.844M486.34 307.305h10.676v-10.641H486.34v10.641M456.988 294.34v15.289h15.348V294.34h-15.348M428.219 292.598v18.773h18.847v-18.773h-18.847M486.34 280.336h10.676v-10.641H486.34v10.641M456.988 267.371v15.289h15.348v-15.289h-15.348M428.219 265.629v18.773h18.847v-18.773h-18.847M486.34 253.375h10.676v-10.641H486.34v10.641M456.988 240.41v15.289h15.348V240.41h-15.348M428.219 238.66v18.781h18.847V238.66h-18.847" style="fill:#fbc707;fill-opacity:1;fill-rule:nonzero;stroke:none" transform="matrix(.03528 0 0 -.03528 0 17.501)"/><path d="M73.438 205.84h14.226v3.523h-14.23v77.348h14.23v3.519H73.437l.044 24.379h27.027l-.028 25.86h14.227v3.519H100.48l.028 24.328h27.015v26.809l54.02.008v27.195l24.988.016.008-14.172h3.527v14.172h77.637v-14.172h3.535v14.172l24.196-.016v-27.195l54.023-.008v-26.809h27.004l.016-24.328H382.25v-3.519h14.227l-.024-25.86h27.02l.004-24.379h-14.231v-3.519h14.231v-77.348h-14.231v-3.523h14.231l-.004-24.61h-27.02l.024-25.769H382.25v-3.52h14.227l-.016-24.636h-27.004v-27.012h-54.023V73.672l-24.196-.031v14.18h-3.535V73.64h-77.637v14.18h-3.527l-.008-14.18-24.988.03v26.622h-54.02v27.012h-27.015l-.028 24.636h14.227v3.52H100.48l.028 25.769H73.481l-.043 24.61" style="fill:#fbc707;fill-opacity:1;fill-rule:nonzero;stroke:none" transform="matrix(.03528 0 0 -.03528 0 17.501)"/><path d="M339.801 171.551c3.734-.254 12.722-1.375 4.601-14.434-5.964-9.578-24.738-16.512-24.738-16.512s8.949-.402 7.453-5.39c-1.48-4.981-4.847-8.652-29.082-10.098-24.246-1.445-66.883 16.914-71.851 19.024 1.242-4.727 1.48-16.817-8.332-16.016-6.336.535-8.082 7.617-7.207 8.535.871.918 7.207 2.235 5.96 6.426-1.238 4.199-10.062 11.016-21.625 13.769-1.617-.39-7.335-10.226-9.691-11.925 4.227-.137 14.789-.918 12.176-11.153-2.61-10.242-14.789-5.781-14.789-1.441 0 2.223 2.894.32 2.234 3.805-.375 1.964-3.726 2.492-7.453-1.844-3.73-4.328-13.059-7.082-20.269-7.219-7.211-.137-23.743 3.547-25.231 20.735-1.492 17.175 15.902 24.277 21.758 24.792 5.84.52 12.301.137 14.289.137 1.121 1.574 2.238 4.981.242 6.692-1.98 1.699.504 7.734 6.348 7.597 5.836-.136 11.437-5.371 5.722-15.343 3.477-2.5 6.09-3.016 7.207-2.625 1.122.39 2.481 4.988 2.86 7.089.887 4.969 1.613 14.032-.742 19.403-2.368 5.383-4.731 3.554-6.965 3.808-2.231.266-4.727 3.02-4.977 7.481-.242 4.465 4.606 8.008 8.453 7.871 3.852-.125 9.328-5.371 10.942-9.969 1.738 9.715-.242 28.074-2.989 34.5-2.726 6.438-4.968 8.926-10.437 8.797-5.477-.133-4.602-3.414-7.949-4.988-7.09 3.144-6.84 12.203-2.989 16.394 3.852 4.199 11.063 3.809 12.559 3.809.934 1.586 1.488 2.621 2.856 2.754 3.843.371 7.707-4.199 10.191-7.086 2.488-2.883 4.727-9.574 4.852-12.727.859 1.321.992 1.442 1.613 2.629.621 1.18 2.609 1.707 2.609 1.707s.129.914 0 1.832c-1.121.793-2.73 3.285-3.101 5.258-.379 1.953 1.359 5.246 1.359 5.633 0 .398-1.984.265-2.977 4.594-.996 4.332 4.094 13.25 4.969 14.429.871 1.184 2.11 7.879-1.117 8.266-8.523 1.035-3.73-3.012-6.957-2.496-7.688 1.254-7.59 17.324 1.609 19.679 9.203 2.364 15.41-7.351 16.778-9.832.5 1.829 1.992 9.309 8.211 24.661 6.218 15.351 10.195 15.746 10.32 20.726.121 4.985-3.609 4.203-6.957 4.332 0 6.696 2.351 14.43 10.808 14.957 8.454.528 11.586-7.648 11.586-7.648s29.231 22.414 60.497 22.164c31.269-.235 38.574-25.297 38.343-33.727-.218-8.425-2.551-22.242-16.886-25.769-6.848-1.688-13.922 9.394-7.079 17.578 0 0 7.993-6.016 11.641-3.129-3.879.48-4.332 2.172-4.332 3.129 0 .969 7.766 4.582 4.785 10.363-1.133 1.203-3.418-6.023-7.293-1.449-2.285 4.582 2.051 12.769-11.871 13.254 2.274-1.203 11.184-14.699-1.141-17.828-14.75-2.262 2.075 17.554-29.445 18.308 0 0-12.789.489-24.199-10.843 6.391-1.442 15.289-11.082-.457-17.098-1.828 2.406 3.875 6.746-7.766 5.293-11.64-1.442-26.703-18.547-29.218-44.317 5.476 4.813 9.359.958 11.187-2.179 1.828-3.129-2.508-7.223-4.797-7.461-2.277-.242-5.703-2.172-5.926-7.469-.234-5.293-1.148-10.84-5.484-12.769 0 0 2.691-2.442 1.82-5.852-.867-3.41-3.359-4.594-4.355-4.852l.129-.664s3.105-5.246 1.984-12.461c2.492 1.18 9.199 3.938 12.184-1.972 2.98-5.91-.375-10.481-3.981-11.926-3.601-1.445-3.718-1.18-5.84.918-2.105 2.102-5.093-1.316-5.218-3.934-.125-2.617-5.473-18.644-7.461-26.125-1.992-7.468-10.809-26.23-12.551-28.984 2.355-.652 8.82-5.906 21.879-5.117 13.051.793 17.773 6.164 18.769 7.344-1.746.527-2.242 6.828.746 8.664 2.985 1.836 12.305 1.699 15.54-6.289 3.242-8.008-.25-17.727-14.918-20.09 8.945-1.446 10.687-5.762 40.398-6.942 29.715-1.183 47.109 20.469 44.383 35.821-2.742 15.339-5.598 11.015-13.801 7.988-6.348 2.098-7.043 12.195-1.742 16.141 2.113 1.574 8.086 5.253 10.937 4.992 1.243 1.961 2.871 7.617 9.578 5.117 6.711-2.492 23.493-10.246 9.079-41.203zm-157.672-11.473s-15.172 2.883-20.637 2.363c.129-3.418-.375-6.828-5.844-6.828-5.46 0-5.964 2.891-8.203 3.157-1.984-1.973-7.836-8.665-3.601-15.352 4.226-6.691 11.504-8.223 17.273-3.145 2.985 2.618 2.121 8.262 1.992 10.086-.125 1.848 4.965.93 7.336-2.879 2.731 1.055 9.571 8.399 11.684 12.598" style="fill:#fff;fill-opacity:1;fill-rule:nonzero;stroke:none" transform="matrix(.03528 0 0 -.03528 0 17.501)"/><path d="M554.359 185.332h67.657v9.375h-56.141v116.035h-11.516v-125.41M641.758 310.742v-84.414c0-28.496 14.996-42.734 45.508-42.734 30.515 0 45.511 14.238 45.511 42.734v84.414H721.27v-85.461c0-23.972-11.684-32.312-34.004-32.312-22.317 0-34 8.34-34 32.312v85.461h-11.508" style="fill:#231f20;fill-opacity:1;fill-rule:nonzero;stroke:none" transform="matrix(.03528 0 0 -.03528 0 17.501)"/><path d="M763.887 185.332h35.566c39.059 0 54.75 29.18 54.75 62.699 0 33.528-15.691 62.711-54.75 62.711h-35.566zm11.504 116.031h24.414c27.894 0 42.89-19.461 42.89-53.332s-14.996-53.324-42.89-53.324h-24.414v106.656" style="fill:#231f20;fill-opacity:1;fill-rule:evenodd;stroke:none" transform="matrix(.03528 0 0 -.03528 0 17.501)"/><path d="M904.078 185.332h11.504l24.59 103.172h.34l24.59-103.172h11.503l33.655 125.41h-11.69l-27.375-104.57h-.34l-24.589 104.57h-11.504l-25.11-104.57h-.339l-26.868 104.57h-11.679l33.312-125.41M1039.45 185.332h11.5v125.41h-11.5v-125.41M1172.81 276.176c-4.37 21.363-19.18 36.301-42.55 36.301-27.03 0-48.83-22.926-48.83-64.446 0-41.508 20.24-64.437 48.3-64.437 17.43 0 26.68 4.336 34.17 14.062h.35v-12.324h9.94v58.699h-43.25v-9.375h31.75v-11.453c0-16.68-11.68-30.234-29.47-30.234-32.43 0-40.29 28.144-40.29 55.062 0 33.871 14.49 55.063 36.63 55.063 18.66 0 28.59-12.852 32.43-28.832l10.82 1.914M1198.17 217.117c6.97-22.937 20.75-33.523 44.81-33.523 20.4 0 38.36 11.804 38.36 33.172 0 18.07-7.16 26.75-42.54 39.957-23.19 8.683-25.64 14.761-25.64 23.273 0 14.77 10.12 23.098 24.76 23.098 16.05 0 25.82-9.727 30.35-23.621l9.94 2.953c-5.76 19.285-20.41 30.051-40.29 30.051-23.35 0-36.26-13.891-36.26-32.481 0-41.519 68.17-28.312 68.17-62.008 0-15.117-9.41-25.019-25.1-25.019-19.89 0-31.04 8.34-35.92 27.449l-10.64-3.301" style="fill:#231f20;fill-opacity:1;fill-rule:nonzero;stroke:none" transform="matrix(.03528 0 0 -.03528 0 17.501)"/><path d="M1309.42 185.332h40.11c27.19 0 44.8 8.328 44.8 34.395 0 15.8-9.06 26.394-22.84 32.476 12.55 5.735 17.78 13.547 17.78 27.094 0 21.719-13.6 31.445-44.64 31.445h-35.21zm11.5 116.031h22.68c22.66 0 34.17-4.519 34.17-22.937 0-18.41-14.65-23.27-29.47-23.27h-27.38zm0-55.582h26.16c25.28 0 35.75-10.945 35.75-25.363 0-17.723-9.94-25.711-32.09-25.711h-29.82v51.074" style="fill:#231f20;fill-opacity:1;fill-rule:evenodd;stroke:none" transform="matrix(.03528 0 0 -.03528 0 17.501)"/><path d="M1423.07 310.742v-84.414c0-28.496 14.99-42.734 45.51-42.734 30.52 0 45.52 14.238 45.52 42.734v84.414h-11.52v-85.461c0-23.972-11.69-32.312-34-32.312-22.32 0-34 8.34-34 32.312v85.461h-11.51" style="fill:#231f20;fill-opacity:1;fill-rule:nonzero;stroke:none" transform="matrix(.03528 0 0 -.03528 0 17.501)"/><path d="M1601.06 244.734c17.96 4.512 26.15 15.457 26.15 31.965 0 20.496-13.94 34.043-38.7 34.043h-42.55v-125.41h11.51v57.313h32.6l29.3-57.313h12.56zm-43.59 56.629h31.04c18.13 0 27.2-9.207 27.2-24.664 0-15.465-10.46-24.668-27.2-24.668h-31.04v49.332" style="fill:#231f20;fill-opacity:1;fill-rule:evenodd;stroke:none" transform="matrix(.03528 0 0 -.03528 0 17.501)"/><path d="M1741.92 276.176c-4.37 21.363-19.18 36.301-42.55 36.301-27.03 0-48.83-22.926-48.83-64.446 0-41.508 20.24-64.437 48.31-64.437 17.43 0 26.68 4.336 34.16 14.062h.35v-12.324h9.95v58.699h-43.25v-9.375h31.74v-11.453c0-16.68-11.68-30.234-29.47-30.234-32.43 0-40.27 28.144-40.27 55.062 0 33.871 14.47 55.063 36.62 55.063 18.65 0 28.59-12.852 32.43-28.832l10.81 1.914" style="fill:#231f20;fill-opacity:1;fill-rule:nonzero;stroke:none" transform="matrix(.03528 0 0 -.03528 0 17.501)"/></svg>