<?xml version="1.0" encoding="UTF-8" standalone="no"?>
<!-- Created with Inkscape (http://www.inkscape.org/) -->

<svg
   version="1.1"
   id="svg2"
   xml:space="preserve"
   width="508.69333"
   height="409.58667"
   viewBox="0 0 508.69333 409.58667"
   sodipodi:docname="tuermchenlogo.eps"
   xmlns:inkscape="http://www.inkscape.org/namespaces/inkscape"
   xmlns:sodipodi="http://sodipodi.sourceforge.net/DTD/sodipodi-0.dtd"
   xmlns="http://www.w3.org/2000/svg"
   xmlns:svg="http://www.w3.org/2000/svg"><defs
     id="defs6" /><sodipodi:namedview
     id="namedview4"
     pagecolor="#ffffff"
     bordercolor="#666666"
     borderopacity="1.0"
     inkscape:pageshadow="2"
     inkscape:pageopacity="0.0"
     inkscape:pagecheckerboard="0" /><g
     id="g8"
     inkscape:groupmode="layer"
     inkscape:label="ink_ext_XXXXXX"
     transform="matrix(1.3333333,0,0,-1.3333333,0,409.58667)"><g
       id="g10"
       transform="scale(0.1)"><path
         d="m 3057.08,670.25 v 1193.94 h 117.83 l -209.79,301.95 v 270.03 h 94.85 c 0,0 -140.82,169.44 -140.82,321.73 0,-152.29 -140.82,-321.7 -140.82,-321.7 h 94.82 v -270.06 l -209.76,-301.95 h 117.83 v -239.2 h -52.28 l -146.73,170.89 v 184.5 h 71.33 c 0,0 -115.61,154.96 -115.61,258.28 0,-103.32 -115.59,-258.28 -115.59,-258.28 h 71.32 v -184.5 l -136.81,-156.12 1.02,368.97 -97.71,126.45 h -229.88 l -97.71,-126.45 v -627.19 h -90.25 v 701.03 h -98.08 v 385 h 116.24 c -148.94,156.16 -152.55,283.36 -152.55,283.36 h -54.48 v 98.06 h 54.48 l -90.82,199.78 -90.8,-199.78 h 54.48 v -98.06 h -54.48 c 0,0 -3.61,-127.2 -152.55,-283.36 H 1490 v -385 h -98.08 v -701.03 h -135.28 v 128.59 h 87.54 l -87.54,134.05 v 142.25 h 60.2 l -131.34,172.36 v 202.44 h 46.52 L 1122.6,2410.2 1013.17,2161.23 h 46.52 V 1958.79 L 928.352,1786.43 h 60.199 v -142.25 l -87.539,-134.05 h 87.539 V 1381.54 H 824.805 v 644.01 l 176.255,-3.39 c 0,0 -372.853,528.76 -376.24,708.4 -3.382,-179.64 -376.234,-708.4 -376.234,-708.4 l 176.254,3.39 v -644.01 h -64.406"
         style="fill:none;stroke:#231f20;stroke-width:19.1243;stroke-linecap:butt;stroke-linejoin:miter;stroke-miterlimit:4;stroke-dasharray:none;stroke-opacity:1"
         id="path12" /><path
         d="m 2231.42,1125.05 c 0,0 12.33,-20.02 32.35,-20.02 20.02,0 27.73,13.85 30.8,26.18 3.09,12.33 24.65,21.56 36.98,21.56 12.33,0 31.3,-11.65 86.11,-4.23 39.17,5.28 81.8,2.71 104.88,1.17 23.09,-1.55 58.52,1.52 81.63,1.52 23.11,0 13.87,1.54 36.98,-3.07 23.11,-4.62 49.28,-4.62 84.71,-4.62 35.44,0 33.87,0 58.52,0 24.65,0 44.67,-13.88 47.76,-6.16 3.09,7.7 -10.78,27.72 -36.97,30.8 -26.18,3.09 -66.21,4.64 -78.55,7.7 0,0 -41.58,10.81 -15.41,38.52 26.2,27.72 61.63,30.81 70.87,30.81 9.24,0 13.85,12.32 -7.71,15.39 -21.58,3.08 -60.09,7.72 -77.03,-9.24 -16.93,-16.94 -38.5,-40.05 -44.64,-47.74 -6.19,-7.72 -63.18,-26.2 -55.46,12.3 7.69,38.52 26.17,52.4 36.95,61.63 10.78,9.24 27.74,16.94 27.74,16.94 0,0 18.48,15.41 -6.18,13.86 -24.63,-1.54 -60.06,-20.04 -70.84,-38.52 -10.78,-18.47 -30.8,-53.91 -46.22,-63.15 -15.39,-9.23 -58.51,-26.17 -53.9,7.72 4.62,33.87 29.25,67.76 36.97,77 7.69,9.23 23.11,18.5 23.11,18.5 0,0 19.99,9.21 -7.72,7.69 -27.72,-1.54 -57,-30.8 -69.3,-49.27 -12.33,-18.51 -25.08,-45.98 -30.81,-55.46 -10.85,-17.96 -70.79,-49.03 -64.69,6.15 5.66,51.1 38.69,70.75 44.85,78.44 6.18,7.69 27.42,24.4 -6.48,19.8 -33.88,-4.64 -50.42,-31.33 -55.03,-42.11 -4.63,-10.78 -18.78,-40.72 -21.86,-53.05 -3.07,-12.32 -20.02,-36.95 -35.41,-29.25 -15.41,7.69 -4.11,27.49 -36.98,27.71 -20.25,0.13 -29.26,-30.8 -30.81,-38.49 0,0 -29.25,-4.64 -27.71,-26.2 1.54,-21.56 10.78,-29.29 38.5,-30.81"
         style="fill:#231f20;fill-opacity:1;fill-rule:nonzero;stroke:none"
         id="path14" /><path
         d="m 2756.51,988.141 c -26.96,2.621 -55.65,3.488 -60.88,3.488 -5.2,0 -26.07,7.84 -14.76,28.711 11.3,20.87 34.76,31.31 42.61,33.05 0,0 22.2,4.38 37.42,2.17 0,0 14.34,1.54 4.4,9.71 -9.9,8.17 -42.53,15.21 -64.14,5.08 -21.61,-10.16 -55.58,-36.83 -68.58,-48.51 0,0 -21.84,-15.44 -35.51,-11.68 -13.67,3.74 -13.42,18.73 -3.95,31.52 9.48,12.78 22.03,32.63 28.21,40.12 6.17,7.5 21.83,15.89 29.78,18.75 7.91,2.87 19.59,3.06 22.69,7.27 3.08,4.19 -0.88,8.4 -8.37,11.04 -7.5,2.63 -35.49,4.15 -52.02,-4.44 -16.53,-8.59 -33.07,-25.77 -42.11,-36.58 -9.04,-10.8 -30.21,-41.24 -34.84,-46.09 -4.63,-4.86 -24.48,-18.27 -31.97,-20.05 -7.5,-1.76 -29.98,-3.33 -33.52,10.57 -3.54,13.89 9.49,40.58 15.66,50.27 6.18,9.71 16.54,26.44 20.5,29.98 3.98,3.53 13.67,12.38 18.08,14.79 4.41,2.42 16.53,10.34 12.8,14.55 -3.76,4.18 -22.27,7.27 -38.16,-2.87 -15.86,-10.13 -36.37,-30.45 -46.51,-47.19 -10.14,-16.76 -22.93,-45.62 -28.21,-53.56 -5.31,-7.95 -24.92,-28.02 -37.28,-26.7 -12.35,1.32 -15.42,18.21 -14.99,25.58 0.45,7.49 5.3,36.61 14.35,51.17 9.03,14.54 24,33.29 29.08,36.81 5.08,3.53 13.9,12.12 11.9,14.54 -1.97,2.44 -10.13,4.66 -23.58,-1.74 -13.45,-6.41 -37.48,-13.25 -50.93,-42.56 -13.44,-29.33 -20.94,-50.93 -22.48,-54.24 -1.54,-3.31 -14.99,-29.53 -21.17,-29.98 -6.17,-0.45 -17.4,16.09 -22.93,20.27 -5.51,4.19 -20.07,5.73 -27.34,-0.22 -7.27,-5.96 -19.27,-18.92 -21.55,-30.408 0,0 -19.99,-12.172 -19.12,-30.434 0.87,-18.238 28.71,-28.668 28.71,-28.668 0,0 9.56,-0.898 11.31,-4.379 1.72,-3.48 12.18,-14.781 20.87,-14.781 8.69,0 28.68,12.199 31.3,24.352 0,0 8.69,21.738 27.81,21.738 19.15,0 109.59,7.851 125.24,6.09 15.66,-1.739 52.18,4.34 62.62,5.218 10.43,0.864 47.82,-2.617 57.38,-4.359 9.58,-1.719 44.37,-4.328 53.93,-3.449 9.56,0.851 19.12,-2.621 33.04,-4.379 13.9,-1.742 46.07,-1.742 59.99,-0.859 13.92,0.859 44.35,2.617 66.96,-15.641 l 13.92,-9.551 c 0,0 12.18,-3.5 6.95,6.93 -5.2,10.43 -35.63,46.949 -62.61,49.551"
         style="fill:#231f20;fill-opacity:1;fill-rule:nonzero;stroke:none"
         id="path16" /><path
         d="m 2745.63,828.961 c -16.53,9.019 -34.6,10.23 -39.71,9.82 -5.13,-0.39 -27.14,-0.39 -41.71,-0.39 -14.54,0 -3.15,20.839 -3.15,20.839 0,0 15.75,19.668 26.75,29.911 11.04,10.23 26.38,13.371 37.78,14.57 11.4,1.168 12.97,-1.199 19.27,0.777 6.28,1.953 1.97,7.852 -3.93,11.383 -5.9,3.559 -17.71,7.481 -38.18,6.699 -20.44,-0.781 -35.41,-9.429 -43.28,-16.519 -7.86,-7.071 -43.65,-40.121 -55.45,-51.129 -11.8,-11.024 -24.4,-11.801 -39.74,-9.07 -15.34,2.777 -9.44,21.25 -5.5,29.128 3.93,7.872 16.53,26.36 27.93,36.598 11.41,10.231 25.17,13.774 32.25,14.942 7.09,1.191 8.67,4.73 9.44,7.871 0.8,3.16 -7.87,12.968 -37.76,8.648 -29.9,-4.309 -46.8,-29.098 -56.26,-39.719 -9.45,-10.629 -35.02,-40.121 -40.12,-46.019 -5.14,-5.922 -18.51,-16.539 -30.31,-11.449 -11.8,5.117 -8.25,26.367 -3.54,39.75 4.74,13.378 9.07,18.5 16.14,29.507 7.07,11.039 29.91,24.012 36.98,27.153 7.1,3.16 6.29,10.238 -7.07,12.187 -13.37,1.973 -31.08,-3.929 -49.18,-16.527 -18.11,-12.57 -46.45,-78.301 -54.31,-86.133 -7.87,-7.867 -14.54,1.961 -14.54,1.961 -0.8,5.5 -9.07,22.031 -29.51,21.25 -20.45,-0.809 -25.98,-27.148 -25.98,-27.148 -5.5,-1.18 -31.05,-11.821 -29.88,-32.274 1.17,-20.469 30.68,-24.797 33.44,-25.168 2.75,-0.398 4.34,-2.781 8.28,-7.5 3.92,-4.73 12.16,-14.539 26.33,-13.769 14.17,0.8 26.77,31.871 28.74,33.839 1.97,1.981 5.11,1.192 9.44,0.801 4.33,-0.41 69.23,-1.211 79.46,-0.801 10.21,0.391 51.92,3.168 80.65,3.168 28.72,0 79.07,-1.597 92.05,-3.578 12.96,-1.949 57.44,3.95 67.67,5.508 10.24,1.582 32.65,-2.726 36.98,0.801 4.34,3.543 -3.93,11.019 -20.47,20.082"
         style="fill:#231f20;fill-opacity:1;fill-rule:nonzero;stroke:none"
         id="path18" /><path
         d="m 2902.94,1063.35 c 0,-210.721 -171.43,-382.139 -382.14,-382.139 -210.71,0 -382.14,171.418 -382.14,382.139 v 276.83 h 764.28 z m 6.38,506.42 h -783.41 v -506.42 c 0,-217.729 177.15,-394.881 394.89,-394.881 217.74,0 394.88,177.152 394.88,394.881 v 276.83 12.97 216.62 h -6.36"
         style="fill:#231f20;fill-opacity:1;fill-rule:nonzero;stroke:none"
         id="path20" /><path
         d="m 351.152,1316.89 c -34.429,15.03 -72.773,23.73 -111.125,23.73 -37.562,0 -86.082,-16.6 -86.082,-76.67 0,-95.65 239.473,-55.35 239.473,-240.32 0,-120.939 -94.691,-166.778 -205.039,-166.778 -59.473,0 -86.078,7.886 -140.0782,21.328 l 10.1758,99.609 c 37.5625,-20.551 80.6054,-33.988 123.6484,-33.988 41.473,0 97.035,21.328 97.035,71.139 0,105.14 -239.4686,61.66 -239.4686,244.26 0,123.31 94.6956,168.37 190.9496,168.37 46.957,0 90.781,-6.32 130.691,-19.77 l -10.18,-90.91"
         style="fill:#231f20;fill-opacity:1;fill-rule:nonzero;stroke:none"
         id="path22" /><path
         d="m 456.129,1195.96 h -68.094 v 77.46 h 68.094 v 81.42 l 92.148,34 v -115.42 h 81.836 v -77.46 h -81.836 v -189.72 c 0,-34.779 8.25,-67.181 43.325,-67.181 16.503,0 32.324,3.941 41.953,11.07 l 2.746,-83.809 c -19.254,-6.32 -40.571,-9.468 -68.078,-9.468 -72.211,0 -112.094,51.367 -112.094,132.007 v 207.101"
         style="fill:#231f20;fill-opacity:1;fill-rule:nonzero;stroke:none"
         id="path24" /><path
         d="m 844.59,1197.54 c -74.371,0.75 -125.973,-54.83 -125.973,-127.67 0,-68.34 56.156,-120.909 124.453,-120.151 72.848,-0.758 122.942,53.321 122.942,124.661 0,69.84 -50.094,123.91 -121.422,123.16 z m 217.04,-331.919 h -92.591 v 56.328 c -31.871,-42.808 -91.066,-69.847 -144.176,-69.847 -65.261,0 -118.383,27.039 -154.808,69.847 -33.383,39.781 -52.36,93.861 -52.36,151.681 0,57.83 15.176,105.89 53.875,149.44 42.496,48.81 94.86,72.09 156.321,72.09 57.675,0 107.757,-25.53 141.148,-72.09 0,0 0,0 0,58.58 h 92.591 V 865.621"
         style="fill:#231f20;fill-opacity:1;fill-rule:nonzero;stroke:none"
         id="path26" /><path
         d="m 1328.12,1202.91 c -64.5,0 -121.42,-57.96 -121.42,-122.79 0,-70.16 52.37,-128.87 122.94,-128.87 69.81,0 124.45,57.19 124.45,126.59 0,70.16 -56.91,125.07 -125.97,125.07 z m 220.06,-337.07 h -92.57 v 57.18 c -31.12,-46.52 -86.51,-70.918 -141.15,-70.918 -61.47,0 -114.58,28.207 -151.76,70.918 -35.67,41.191 -56.92,96.09 -56.92,152.53 0,56.43 18.97,112.11 56.92,154.81 37.93,42.71 97.13,71.7 154.8,71.7 48.56,0 97.89,-19.82 129.76,-57.2 v 184.55 h 100.92 V 865.84"
         style="fill:#231f20;fill-opacity:1;fill-rule:nonzero;stroke:none"
         id="path28" /><path
         d="m 1623.31,1195.96 h -68.09 v 77.46 h 68.09 v 81.42 l 92.15,34 v -115.42 h 81.84 v -77.46 h -81.84 v -189.72 c 0,-34.779 8.26,-67.181 43.33,-67.181 16.49,0 32.32,3.941 41.94,11.07 l 2.76,-83.809 c -19.26,-6.32 -40.58,-9.468 -68.08,-9.468 -72.21,0 -112.1,51.367 -112.1,132.007 v 207.101"
         style="fill:#231f20;fill-opacity:1;fill-rule:nonzero;stroke:none"
         id="path30" /><path
         d="M 0,762.031 H 113.984 L 219.02,353.34 322.418,762.031 H 403.84 L 505.609,353.34 611.453,762.031 H 725.438 L 550.391,177.852 H 461.648 L 363.941,564.391 263.801,177.852 h -88.75 L 0,762.031"
         style="fill:#231f20;fill-opacity:1;fill-rule:nonzero;stroke:none"
         id="path32" /><path
         d="m 916.137,527.238 c -79.789,0.782 -135.16,-57.687 -135.16,-134.367 0,-71.941 60.25,-127.269 133.531,-126.492 78.16,-0.777 131.892,56.133 131.892,131.23 0,73.52 -53.732,130.411 -130.263,129.629 z M 1148.99,177.852 h -99.33 v 59.289 c -34.2,-45.051 -97.703,-73.512 -154.695,-73.512 -70.024,0 -127.016,28.461 -166.094,73.512 -35.824,41.898 -56.176,98.808 -56.176,159.668 0,60.882 16.282,111.472 57.801,157.312 C 776.094,605.5 832.27,630 898.223,630 c 61.879,0 115.607,-26.859 151.437,-75.879 0,0 0,0 0,61.66 h 99.33 V 177.852"
         style="fill:#231f20;fill-opacity:1;fill-rule:nonzero;stroke:none"
         id="path34" /><path
         d="m 1178.58,615.781 h 108.3 V 177.852 h -108.3 z m 0,146.25 h 108.3 v -95.672 h -108.3 v 95.672"
         style="fill:#231f20;fill-opacity:1;fill-rule:nonzero;stroke:none"
         id="path36" /><path
         d="m 1437.51,402.359 c 0,-76.699 54.55,-135.98 135.97,-135.98 76.53,0 129.46,56.133 129.46,129.652 0,72.719 -52.11,131.207 -129.46,131.207 -72.46,0 -135.97,-52.168 -135.97,-124.879 z m -101.77,359.672 h 108.28 v -192.09 c 31.76,42.668 89.56,60.059 140.86,60.059 131.89,0 226.34,-109.871 226.34,-233.191 0.82,-52.95 -21.99,-118.571 -57.81,-159.668 -39.89,-47.442 -102.58,-73.512 -165.28,-73.512 -61.88,0 -117.24,22.133 -153.07,73.512 v -59.289 h -99.32 v 584.179"
         style="fill:#231f20;fill-opacity:1;fill-rule:nonzero;stroke:none"
         id="path38" /><path
         d="m 1834.83,762.031 h 108.3 V 177.852 h -108.3 v 584.179"
         style="fill:#231f20;fill-opacity:1;fill-rule:nonzero;stroke:none"
         id="path40" /><path
         d="m 1979.24,615.781 h 108.29 V 177.852 h -108.29 z m 0,146.25 h 108.29 v -95.672 h -108.29 v 95.672"
         style="fill:#231f20;fill-opacity:1;fill-rule:nonzero;stroke:none"
         id="path42" /><path
         d="m 2118.52,602.16 h 88.47 v -39.082 c 25.18,35.242 68.34,52.852 110.05,52.852 41.73,0 84.89,-19.918 113.66,-52.828 3.61,-3.852 7.2,-7.661 10.08,-12.262 30.93,-45.961 31.65,-98.789 31.65,-153.192 V 177.852 h -95.67 V 377.73 c 0,32.95 0,75.079 -16.55,103.418 -13.67,22.204 -38.84,35.231 -63.3,35.231 -25.89,0 -53.95,-14.551 -66.9,-37.539 -17.27,-29.102 -15.82,-75.059 -15.82,-108.75 V 177.852 h -95.67 V 602.16"
         style="fill:#231f20;fill-opacity:1;fill-rule:nonzero;stroke:none"
         id="path44" /><path
         d="m 3461.3,602.16 h 88.48 v -39.082 c 25.17,35.242 68.34,52.852 110.05,52.852 41.72,0 84.89,-19.918 113.67,-52.828 3.59,-3.852 7.19,-7.661 10.06,-12.262 30.93,-45.961 31.65,-98.789 31.65,-153.192 V 177.852 h -95.67 V 377.73 c 0,32.95 0,75.079 -16.54,103.418 -13.67,22.204 -38.85,35.231 -63.3,35.231 -25.9,0 -53.95,-14.551 -66.9,-37.539 -17.27,-29.102 -15.83,-75.059 -15.83,-108.75 V 177.852 H 3461.3 V 602.16"
         style="fill:#231f20;fill-opacity:1;fill-rule:nonzero;stroke:none"
         id="path46" /><path
         d="m 2720.74,527.238 c -33.52,0 -65.5,-15.019 -88.12,-38.726 -24.18,-25.293 -34.31,-54.551 -34.31,-89.321 0,-75.89 55.36,-132.812 130.24,-132.812 68.62,0 121.65,61.66 121.65,128.851 0,75.098 -56.15,132.008 -129.46,132.008 z m 226.94,88.543 V 244.25 c 0,-67.988 -14.04,-119.352 -60.82,-169.1602 C 2842.4,28.4492 2780.01,0 2715.28,0 2624.05,0 2532.8,56.1289 2500.83,144.66 h 117.75 c 23.4,-25.289 63.17,-41.89 96.7,-41.89 34.33,0 71.75,12.64 96.7,36.351 31.19,29.25 35.09,59.289 41.34,99.609 -35.87,-45.062 -80.32,-75.101 -139.6,-75.101 -54.58,0 -116.96,29.242 -154.39,68.769 -42.9,45.063 -64.74,108.301 -64.74,170.743 0,57.711 21.84,111.461 57.72,152.558 40.54,45.063 99.04,74.301 163.75,74.301 56.16,0 109.17,-23.699 136.48,-74.301 v 60.082 h 95.14"
         style="fill:#231f20;fill-opacity:1;fill-rule:nonzero;stroke:none"
         id="path48" /><path
         d="m 3323.08,443.449 c -16.9,52.172 -63.74,83.789 -115.97,83.789 -50.68,0 -102.91,-33.199 -118.27,-83.789 z m -232.7,-93.277 c 15.35,-50.582 60.67,-83.793 112.13,-83.793 38.39,0 75.27,15.019 95.22,37.949 h 112.91 c -26.12,-78.258 -114.45,-140.699 -204.29,-140.699 -123.64,0 -224.26,102.75 -224.26,230.019 0,129.653 98.31,236.352 225.79,236.352 121.36,0 218.12,-107.5 218.12,-230.02 0,-16.609 -3.08,-33.21 -5.37,-49.808 h -330.25"
         style="fill:#231f20;fill-opacity:1;fill-rule:nonzero;stroke:none"
         id="path50" /></g></g></svg>
