<?xml version="1.0" encoding="utf-8"?>
<!-- Generator: Adobe Illustrator 25.1.0, SVG Export Plug-In . SVG Version: 6.00 Build 0)  -->
<svg version="1.1" xmlns="http://www.w3.org/2000/svg" xmlns:xlink="http://www.w3.org/1999/xlink" x="0px" y="0px"
	 viewBox="0 0 141.73 141.73" style="enable-background:new 0 0 141.73 141.73;" xml:space="preserve">
<style type="text/css">
	.st0{opacity:0.5;}
	.st1{fill:#FFFFFF;}
	.st2{fill:#0A65AF;}
	.st3{fill:#E6007D;}
	.st4{fill:#1D1D1B;}
</style>
<g id="Transparenz">
	<g class="st0">
		<path class="st1" d="M70.91,141.73c-29.64,0-57.33-18.76-67.24-48.37C-8.73,56.32,11.33,16.09,48.37,3.7
			c17.95-6,37.15-4.66,54.09,3.78c16.94,8.44,29.57,22.98,35.57,40.92c6,17.95,4.66,37.16-3.78,54.09s-22.98,29.57-40.92,35.57l0,0
			C85.9,140.55,78.34,141.73,70.91,141.73z"/>
	</g>
</g>
<g id="weiße_Fläche_Button">
	<path class="st1" d="M132.77,49.62c-5.3-15.84-16.45-28.67-31.4-36.12C91.23,8.44,80.18,6.28,69.18,7.05
		c-6.63,0.05-13.29,1.13-19.76,3.3C16.14,21.49-1.88,57.62,9.26,90.9c8.9,26.6,33.78,43.45,60.4,43.45c6.68,0,13.47-1.06,20.14-3.29
		c6.15-2.06,11.84-4.98,16.96-8.66c9.63-6.04,17.46-14.61,22.66-25.04C136.88,82.41,138.07,65.46,132.77,49.62z"/>
</g>
<g id="Logo">
	<g>
		<path class="st2" d="M73.51,132.35c-26.31,0-50.89-16.65-59.68-42.93c-11-32.88,6.8-68.58,39.68-79.59
			c15.93-5.33,32.98-4.14,48.01,3.36c15.03,7.49,26.25,20.39,31.57,36.32c5.33,15.93,4.14,32.98-3.36,48.01
			s-20.39,26.25-36.32,31.57l0,0C86.82,131.3,80.11,132.35,73.51,132.35z M73.52,7.27c-6.64,0-13.3,1.08-19.78,3.24
			c-32.5,10.88-50.1,46.17-39.22,78.67c10.88,32.5,46.17,50.1,78.67,39.22l0,0c15.74-5.27,28.5-16.35,35.9-31.21
			c7.41-14.86,8.59-31.71,3.32-47.46s-16.35-28.5-31.21-35.91C92.45,9.47,83.01,7.27,73.52,7.27z"/>
		<g>
			<path class="st3" d="M69.72,135.19c-27.72,0-52.25-17.64-61.03-43.91C-2.57,57.66,15.64,21.15,49.26,9.9
				c16.29-5.45,33.73-4.23,49.1,3.43c15.37,7.66,26.84,20.86,32.29,37.14c5.45,16.29,4.23,33.73-3.43,49.1
				c-7.66,15.37-20.86,26.84-37.14,32.29C83.47,134.07,76.62,135.19,69.72,135.19z M69.73,8.32c-6.73,0-13.43,1.1-19.9,3.26
				C34.01,16.88,21.2,28.03,13.74,42.99c-7.46,14.96-8.66,31.91-3.37,47.73s16.45,28.63,31.41,36.09
				c14.96,7.46,31.92,8.66,47.73,3.37c15.84-5.3,28.66-16.45,36.12-31.4c7.45-14.95,8.64-31.9,3.34-47.74
				c-5.3-15.84-16.45-28.67-31.4-36.12C88.78,10.54,79.41,8.32,69.73,8.32z"/>
		</g>
		<g>
			<g>
				<path class="st4" d="M89.58,92.38c0-1.13,0.52-2.15,1.49-2.15c0.71,0,1.04,0.47,0.83,1.59c-0.21,1.11-0.76,1.61-1.45,1.61
					C89.76,93.43,89.58,92.88,89.58,92.38L89.58,92.38z M92.18,90.52c-0.11-0.43-0.44-0.77-1.14-0.77c-1.4,0-2.03,1.44-2.03,2.7
					c0,0.83,0.35,1.46,1.22,1.46c0.71,0,1.17-0.36,1.44-0.78l-0.08,0.44c-0.15,0.87-0.77,1.3-1.6,1.3c-0.33,0-0.66-0.06-1.01-0.21
					l-0.1,0.51c0.23,0.1,0.63,0.2,1.05,0.2c1.21,0,2.01-0.53,2.25-1.93l0.65-3.6h-0.49L92.18,90.52z M87.25,90.8l0.15-0.96h-0.5
					l-0.75,4.25h0.55l0.41-2.27c0.14-0.76,0.71-1.4,1.37-1.4h0.35l0.1-0.59c-0.08-0.01-0.18-0.02-0.26-0.02
					C88.05,89.81,87.52,90.27,87.25,90.8 M85.16,90.83c0,0.87-1.18,1.07-2.36,1.19c0.22-1.15,0.8-1.78,1.68-1.78
					C84.86,90.25,85.16,90.4,85.16,90.83 M84.54,89.76c-1.39,0-2.37,1.23-2.37,2.84c0,1.03,0.41,1.62,1.45,1.62
					c0.52,0,1.09-0.15,1.4-0.26l0.15-0.55c-0.43,0.17-0.94,0.31-1.37,0.31c-0.81,0-1.06-0.44-1.06-1.23
					c1.51-0.14,2.99-0.51,2.99-1.71C85.74,90.14,85.31,89.76,84.54,89.76 M78.55,91.97l0.02-0.1c0.21-1.17,0.77-1.62,1.41-1.62
					c0.7,0,0.89,0.6,0.89,1.25c0,0.77-0.31,2.22-1.47,2.22C78.66,93.72,78.35,93.1,78.55,91.97 M78.81,90.47l0.38-2.19
					c-0.21,0-0.42,0.03-0.57,0.1l-0.62,3.43c-0.28,1.54,0.21,2.41,1.37,2.41c1.47,0,2.08-1.46,2.08-2.76c0-0.97-0.36-1.7-1.3-1.7
					C79.54,89.76,79.09,90.08,78.81,90.47 M74.32,90.63c-0.11-0.54-0.5-0.88-1.14-0.88c-0.53,0-0.99,0.23-1.3,0.65l0.07-0.57h-0.49
					l-0.77,4.25h0.56l0.5-2.79c0.13-0.66,0.64-1.08,1.22-1.08c0.56,0,0.94,0.4,0.79,1.26l-0.46,2.61h0.56l0.44-2.56
					c0.14-0.78,0.62-1.31,1.27-1.31c0.58,0,0.92,0.44,0.77,1.27l-0.45,2.6h0.56l0.46-2.64c0.19-1.04-0.22-1.7-1.12-1.7
					C75.16,89.76,74.64,90.07,74.32,90.63 M69.69,90.83c0,0.87-1.18,1.07-2.36,1.19c0.22-1.15,0.8-1.78,1.68-1.78
					C69.4,90.25,69.69,90.4,69.69,90.83 M69.07,89.76c-1.39,0-2.37,1.23-2.37,2.84c0,1.03,0.41,1.62,1.45,1.62
					c0.52,0,1.09-0.15,1.4-0.26l0.15-0.55c-0.43,0.17-0.94,0.31-1.37,0.31c-0.81,0-1.06-0.44-1.06-1.23
					c1.51-0.14,2.99-0.51,2.99-1.71C70.27,90.14,69.85,89.76,69.07,89.76 M66.43,90.32l0.1-0.48h-0.88l0.18-0.99
					c-0.17,0-0.32,0.03-0.48,0.07l-0.27,0.92h-0.6l-0.1,0.48h0.6l-0.51,2.9c-0.11,0.66,0.1,1,0.75,1c0.2,0,0.41-0.03,0.63-0.1
					l0.09-0.49c-0.16,0.05-0.35,0.09-0.54,0.09c-0.31,0-0.43-0.2-0.36-0.6l0.51-2.8H66.43z M63.92,90.32l0.1-0.48h-0.88l0.18-0.99
					c-0.17,0-0.32,0.03-0.48,0.07l-0.27,0.92h-0.6l-0.1,0.48h0.6l-0.51,2.9c-0.11,0.66,0.1,1,0.75,1c0.2,0,0.41-0.03,0.63-0.1
					l0.09-0.49c-0.16,0.05-0.35,0.09-0.54,0.09c-0.31,0-0.43-0.2-0.36-0.6l0.51-2.8H63.92z M59.91,90.8l0.15-0.96h-0.5l-0.75,4.25
					h0.55l0.41-2.27c0.14-0.76,0.71-1.4,1.37-1.4h0.35l0.1-0.59c-0.08-0.01-0.18-0.02-0.26-0.02C60.71,89.81,60.17,90.27,59.91,90.8
					 M58.03,88.52c0.03-0.21-0.09-0.41-0.33-0.41s-0.43,0.2-0.47,0.41c-0.04,0.21,0.09,0.41,0.33,0.41
					C57.8,88.93,58,88.73,58.03,88.52 M56.53,88.52c0.03-0.21-0.09-0.41-0.33-0.41c-0.25,0-0.43,0.2-0.48,0.41
					c-0.03,0.21,0.09,0.41,0.33,0.41C56.3,88.93,56.49,88.73,56.53,88.52 M57.28,92.3c-0.23,1.02-0.72,1.42-1.4,1.42
					c-0.66,0-0.92-0.37-0.75-1.33l0.46-2.55h-0.56l-0.48,2.66c-0.2,1.15,0.22,1.71,1.07,1.71c0.66,0,1.14-0.26,1.48-0.76l-0.08,0.64
					h0.5l0.77-4.25h-0.56L57.28,92.3z M51.7,93.31c-0.04-1.61-0.17-3.35-0.36-4.96l-0.74,0.04c-0.53,1.73-1.19,3.28-1.97,4.87
					c-0.06-1.69-0.24-3.28-0.5-4.92l-0.59,0.05c0.28,1.93,0.46,3.73,0.53,5.7h0.72c0.83-1.64,1.54-3.11,2.09-4.85
					c0.13,1.59,0.2,3.2,0.26,4.85h0.72c0.96-1.77,2.02-3.62,2.54-5.76l-0.64,0.06C53.29,90.23,52.49,91.82,51.7,93.31 M43.8,91.47
					l-0.09,0.54h2.81l0.09-0.54H43.8z M40.06,90.45l0.08-0.61h-0.49l-0.77,4.25h0.56l0.51-2.76c0.13-0.68,0.66-1.1,1.29-1.1
					c0.58,0,0.99,0.35,0.83,1.25l-0.46,2.61h0.55l0.46-2.63c0.19-1.05-0.23-1.71-1.18-1.71C40.86,89.76,40.38,90,40.06,90.45
					L40.06,90.45z M37.88,90.83c0,0.87-1.18,1.07-2.36,1.19c0.22-1.15,0.8-1.78,1.68-1.78C37.59,90.25,37.88,90.4,37.88,90.83
					 M37.26,89.76c-1.39,0-2.37,1.23-2.37,2.84c0,1.03,0.41,1.62,1.45,1.62c0.52,0,1.09-0.15,1.4-0.26l0.15-0.55
					c-0.43,0.17-0.94,0.31-1.37,0.31c-0.81,0-1.06-0.44-1.06-1.23c1.51-0.14,2.99-0.51,2.99-1.71
					C38.46,90.14,38.04,89.76,37.26,89.76 M31.02,92.48c0-0.74,0.26-2.24,1.48-2.24c0.7,0,1.05,0.58,0.83,1.8
					c-0.21,1.18-0.77,1.67-1.43,1.67C31.2,93.72,31.02,93.11,31.02,92.48L31.02,92.48z M33.6,90.53c-0.13-0.42-0.47-0.77-1.14-0.77
					c-1.4,0-2.04,1.42-2.04,2.76c0,0.96,0.37,1.7,1.3,1.7c0.66,0,1.11-0.35,1.39-0.8l-0.09,0.68h0.51l1.03-5.82
					c-0.22,0-0.43,0.03-0.58,0.1L33.6,90.53z M26.52,92.49c0-0.74,0.26-2.24,1.48-2.24c0.68,0,1.04,0.55,0.84,1.74l-0.02,0.1
					c-0.21,1.16-0.77,1.63-1.42,1.63C26.71,93.72,26.52,93.11,26.52,92.49z M29.13,90.55c-0.13-0.43-0.48-0.79-1.16-0.79
					c-1.4,0-2.04,1.43-2.04,2.75c0,0.97,0.37,1.71,1.3,1.71c0.63,0,1.1-0.35,1.39-0.78l-0.09,0.66h0.5l0.76-4.25h-0.51L29.13,90.55z
					 M22.42,88.88c0.27-0.06,0.7-0.1,1.01-0.1c0.94,0,1.25,0.38,1.24,1c-0.02,0.61-0.36,1.12-1.58,1.12h-1L22.42,88.88z M22,91.38
					h1.19c0.97,0,1.28,0.39,1.28,0.97c0,0.62-0.37,1.25-1.74,1.25h-1.12L22,91.38z M22.58,94.09c2,0,2.47-0.96,2.47-1.76
					c0-0.7-0.39-1.14-1.14-1.2c0.94-0.14,1.34-0.76,1.35-1.45c0.02-0.77-0.39-1.39-1.77-1.39c-0.51,0-1.11,0.08-1.57,0.18
					l-0.98,5.63H22.58z"/>
				<path class="st4" d="M114.82,74.54l-0.96,0.16l0.78-4.56c0.37-0.08,0.82-0.12,1.17-0.12c1.31,0,1.92,0.67,1.86,1.96
					C117.62,73.22,116.89,74.15,114.82,74.54 M115.8,67.9c-1.12,0-2.53,0.16-3.49,0.37L110,81.31h2.68l0.78-4.44l1.23-0.2
					c0.96,1.63,1.61,3.17,2,4.86l2.88-0.22c-0.67-2.17-1.35-3.74-2.35-5.19c2.09-0.74,3.21-2.13,3.27-4.19
					C120.57,69.56,119.32,67.9,115.8,67.9 M106.97,68.19l-1.41,7.99c-0.33,1.92-0.86,3.21-2.94,3.21c-2.11,0-2.06-1.33-1.72-3.21
					l1.41-7.99h-2.68l-1.41,8.01c-0.59,3.25,0.1,5.38,4.01,5.38c4.07,0,5.42-2.08,6.01-5.38l1.43-8.01H106.97z M88.42,68.19
					l-0.35,2.13h3.45l-1.94,10.98h2.68l1.94-10.98h3.45l0.37-2.13H88.42z M84.84,68.19h-2.68l-2.31,13.12h7.09
					c0.25-0.65,0.41-1.17,0.59-2.11H82.9L84.84,68.19z M76.81,68.19l-1.41,7.99c-0.33,1.92-0.86,3.21-2.94,3.21
					c-2.11,0-2.06-1.33-1.72-3.21l1.41-7.99h-2.68l-1.41,8.01c-0.59,3.25,0.1,5.38,4.01,5.38c4.07,0,5.42-2.08,6.01-5.38l1.43-8.01
					H76.81z M64.73,68l-5.35,6.01l1.06-5.82h-2.7l-2.37,13.12h2.7l0.65-3.62l1.61-1.88c1.14,1.96,1.94,3.8,2.7,5.7l3-0.2
					c-1.06-2.45-2.15-4.86-3.56-7.36l5.38-5.76L64.73,68z M47.62,77.36c0-1.92,0.74-4.11,2.47-4.11c1.14,0,1.57,1.21,1.31,3.04
					l-0.14,0.76c-0.39,1.78-1.17,2.55-2.23,2.55C47.91,79.59,47.62,78.55,47.62,77.36 M52.04,72.77c-0.35-0.88-1.06-1.53-2.37-1.53
					c-3.17,0-4.72,3.09-4.72,6.32c0,2.25,0.9,4.03,3,4.03c1.35,0,2.35-0.74,3.02-1.68l-0.1,1.39h2.19l2.37-13.39
					c-1.06,0-1.9,0.12-2.58,0.39L52.04,72.77z M36.98,77.36c0-1.92,0.74-4.11,2.47-4.11c1.14,0,1.59,1.21,1.31,3.05l-0.1,0.59
					c-0.39,1.88-1.19,2.72-2.27,2.72C37.28,79.61,36.98,78.55,36.98,77.36 M41.53,72.97c-0.35-0.98-1.08-1.72-2.49-1.72
					c-3.17,0-4.72,3.09-4.72,6.32c0,2.25,0.9,4.03,3,4.03c1.35,0,2.35-0.74,3.02-1.68l-0.1,1.39h2.19l1.74-9.79h-2.23L41.53,72.97z
					 M28.02,74.54l-0.96,0.16l0.78-4.56c0.37-0.08,0.82-0.12,1.17-0.12c1.31,0,1.92,0.67,1.86,1.96
					C30.82,73.22,30.09,74.15,28.02,74.54 M29,67.9c-1.12,0-2.53,0.16-3.49,0.37L23.2,81.31h2.68l0.78-4.44l1.23-0.2
					c0.96,1.63,1.61,3.17,2,4.86l2.88-0.22c-0.67-2.17-1.35-3.74-2.35-5.19c2.1-0.74,3.21-2.13,3.27-4.19
					C33.77,69.56,32.52,67.9,29,67.9"/>
				<g>
					<path class="st4" d="M112.84,85.87c-0.13-0.1-0.24-0.24-0.35-0.35c0.32-0.07,0.66,0.05,0.66,0.05
						C113.18,85.96,113.11,86.07,112.84,85.87 M113.05,91.81c0.53-0.33,3.32-2.09,3.32-2.1c0.4-0.61,0.8-0.61,1.64-0.63
						c0.1-1.48-2.47-1.1-2.51-0.25c0.04,0.02-2.32,0.21-2.32,0.21s-0.01-0.63-0.02-0.93c0-0.04,0.03-0.07,0.07-0.07
						c0.02,0,0.04,0.01,0.05,0.02c0.27,0.24,0.54,0.45,0.75,0.41c0.19-0.12,0.17-0.3,0.18-0.76c-0.41,0.39-0.55,0.08-0.63-0.37
						c0.58,0.1,1.94,0.34,1.87-0.98c-0.01,0.01-0.05,0-0.05,0.01c-0.1,1.1-1.46,0.92-1.69,0.57c-0.11-0.17,0.22-0.82,0.81-0.09
						c0,0,0.09-0.91,0.05-1.03c-0.02-0.05-1.71-0.75-2.39-0.7c-0.42,0.03-1.15,0.1-1.39,0.14c-0.24,0.04-0.76-0.29-0.93-0.3
						c0.01,0.05,0.23,0.53,0.23,0.53c-0.42,0.39-1,1.69-1.08,2.53c-0.45,0.42-2.81,1.45-6.99,0.07c-2.78-0.91-4.52,0.33-4.99-0.98
						c-0.11-0.3-0.17-0.76,0.59-1.17c0.79-0.43,2.08-0.4,4.59,0.57c1.12,0.44,3.14,1.14,4.11,1.14c0.93,0,1.54-0.54,1.52-1.48
						c-0.01-0.7-1.44-1.51-1.48-1.45c-0.05,0.07,1.07,1.05,0.44,1.94s-1.83,0.38-2.3,0.25c-1.96-0.53-5.07-2.44-7.2-1.49
						c-1.33,0.59-1.36,2.41,0.03,2.83c-0.35,0.74-1.08,2.44-1.1,3.18c-0.02,0-1.43,0.37-1.43,0.37l-0.39,2.3h3.01
						c0,0,0.11-0.66-1.29-1.01c-0.03-0.01-0.05-0.03-0.05-0.07c0-0.03,0.02-0.05,0.04-0.06c0.51-0.3,2.76-0.99,3.36-1.94
						c0.94,1.05,1.63,2.81,1.62,3.08l3.33,0.01c0,0,0.37-1.02-2.12-1.13c0.03-0.76-0.04-1.99-0.09-2.5c0,0,0,0,0,0
						c0-0.04,0.03-0.07,0.07-0.07c0,0,0.01,0,0.01,0c2.45,0.38,2.4,2.23,6.42,2.1c0.03,0.12,0.04,0.38,0.04,0.38
						s4.24,1.21,4.24,1.22h4.27c-0.04-0.5-0.27-1.23-2.65-0.95c-0.35-0.34-1.28-1.04-1.55-1.24c-0.01-0.01-0.03-0.03-0.03-0.05
						C113.01,91.84,113.03,91.82,113.05,91.81"/>
				</g>
			</g>
			<g>
				<path class="st3" d="M57.08,55.95c-4.17,0.01-7.56-3.42-7.57-7.63c-0.01-4.21,3.37-7.65,7.54-7.66
					c4.17-0.01,7.56,3.41,7.57,7.63C64.63,52.51,61.25,55.95,57.08,55.95 M57.05,38.87c-5.15,0.01-9.33,4.25-9.32,9.46
					c0.01,5.21,4.2,9.44,9.35,9.43c5.15-0.01,9.33-4.25,9.32-9.46C66.39,43.09,62.2,38.86,57.05,38.87"/>
				<path class="st3" d="M84.39,55.89c-4.17,0.01-7.56-3.42-7.57-7.63c-0.01-4.21,3.37-7.65,7.54-7.65
					c4.16-0.01,7.56,3.41,7.57,7.63C91.94,52.45,88.56,55.88,84.39,55.89 M84.36,38.81c-5.15,0.01-9.33,4.25-9.32,9.46
					c0.01,5.21,4.21,9.44,9.35,9.43c5.15-0.01,9.33-4.25,9.32-9.46C93.7,43.02,89.51,38.8,84.36,38.81"/>
				<path class="st2" d="M84.3,49.37c-0.37,0-0.72-0.18-0.94-0.51L74.88,36L57.85,49.16c-0.49,0.38-1.2,0.29-1.58-0.21
					c-0.38-0.5-0.28-1.21,0.21-1.6l18.94-14.64l9.81,14.89c0.34,0.52,0.2,1.23-0.31,1.58C84.73,49.31,84.51,49.37,84.3,49.37"/>
				<path class="st2" d="M71.94,31.51l1.34,2.02l1.79-1.38l-1.91-2.89l-3.75,0c-0.62,0-1.11,0.51-1.11,1.13
					c0,0.62,0.5,1.12,1.11,1.12L71.94,31.51z"/>
			</g>
		</g>
	</g>
	<polyline class="st2" points="136.39,115.7 21,135.15 21,113.56 136.37,94.11 	"/>
	<g>
		<path class="st1" d="M33.44,120.59c0.22,1.47-0.4,2.6-1.8,3.39c0.89,0.9,1.58,1.93,2.32,3.4l-2.02,0.51
			c-0.49-1.15-1.14-2.17-2.03-3.21l-0.85,0.29v3.26l-1.91,0.34l0.01-9.57c0.66-0.27,1.64-0.56,2.43-0.7
			C32.1,117.86,33.2,118.89,33.44,120.59z M31.44,120.97c-0.12-0.93-0.64-1.32-1.57-1.16c-0.25,0.04-0.57,0.13-0.82,0.23l0.01,3.34
			l0.66-0.23C31.16,122.61,31.56,121.87,31.44,120.97z"/>
		<path class="st1" d="M39.25,119.26l1.59-0.28l-0.01,7.18l-1.56,0.28l-0.1-1c-0.36,0.75-0.97,1.41-1.93,1.58
			c-1.49,0.26-2.36-0.89-2.64-2.49c-0.41-2.3,0.31-4.69,2.56-5.09c1-0.18,1.61,0.26,1.99,0.92L39.25,119.26z M37.75,125.46
			c0.77-0.14,1.23-0.83,1.27-2.22l0-0.43c-0.04-1.34-0.51-2.15-1.32-2.01c-1.23,0.22-1.48,1.87-1.24,3.24
			C36.61,124.88,36.95,125.6,37.75,125.46z"/>
		<path class="st1" d="M46.6,115.61c0.45-0.28,1.04-0.47,1.79-0.6l0,9.82l-1.56,0.28l-0.1-1c-0.36,0.75-0.97,1.41-1.93,1.58
			c-1.49,0.26-2.35-0.89-2.64-2.49c-0.41-2.3,0.31-4.69,2.56-5.09c0.93-0.16,1.52,0.21,1.88,0.79L46.6,115.61z M45.3,124.11
			c0.75-0.13,1.21-0.77,1.27-2.09l0-0.56c-0.05-1.33-0.51-2.14-1.31-2c-1.23,0.22-1.48,1.87-1.24,3.23
			C44.17,123.55,44.51,124.25,45.3,124.11z"/>
		<path class="st1" d="M52.51,124.33c-1.08,0.19-2.02,0.11-2.67-0.06l0.01-1.83c0.75,0.24,1.7,0.33,2.53,0.19
			c1.06-0.19,1.62-0.73,1.49-1.51c-0.31-1.74-3.64-0.42-4.15-3.32c-0.36-2.05,1.21-3.26,3.09-3.59c1.03-0.18,1.91-0.06,2.51,0.07
			l-0.01,1.75c-0.72-0.26-1.55-0.34-2.31-0.21c-0.88,0.15-1.43,0.58-1.31,1.29c0.29,1.64,3.58,0.32,4.11,3.34
			C56.13,122.32,55.1,123.88,52.51,124.33z"/>
		<path class="st1" d="M57.01,119.72c-0.3-1.71-0.53-6.16,3.76-6.91c0.99-0.17,1.92-0.1,2.64,0.05l0.01,1.68
			c-0.64-0.2-1.54-0.32-2.29-0.19c-2.02,0.36-2.63,2.41-2.22,4.73c0.27,1.52,0.83,2.35,2.22,2.11c0.72-0.13,1.62-0.53,2.29-0.96
			l0.01,1.74c-0.78,0.38-1.67,0.74-2.51,0.89C58.34,123.31,57.35,121.68,57.01,119.72z"/>
		<path class="st1" d="M70.18,111.36l1.92-0.34l0,9.62l-1.92,0.34l0-4.22l-3.36,0.59l0,4.22l-1.91,0.34l0-9.62l1.91-0.34l0,3.83
			l3.36-0.59L70.18,111.36z"/>
		<path class="st1" d="M79.49,109.72l1.77-0.31l0,9.62l-1.77,0.31l-3.11-4.91l-0.54-1.01l-0.01,6.56l-1.77,0.31l0-9.62l1.8-0.32
			l2.99,4.67l0.63,1.12V109.72z"/>
		<path class="st1" d="M88.92,109.61l-3.78,0.67l-0.01,2.38l3.52-0.62c0,0.66-0.04,1.08-0.13,1.55l-3.38,0.6l0,2.61l4.11-0.73
			c-0.01,0.69-0.05,1.12-0.14,1.58l-5.88,1.04l0-9.62l5.82-1.03C89.05,108.83,89.01,109.15,88.92,109.61z"/>
		<path class="st1" d="M92.65,115.47l3.29-0.58c-0.01,0.69-0.05,1.09-0.15,1.58l-5.04,0.89l0-9.62l1.91-0.34L92.65,115.47z"/>
		<path class="st1" d="M99,114.35l3.29-0.58c-0.01,0.69-0.05,1.09-0.15,1.58l-5.04,0.89l0-9.62l1.91-0.34L99,114.35z"/>
		<path class="st1" d="M112.05,103.98l2.14-0.49c-0.15,3.98-1.47,7.2-2.43,10.17l-2.35,0.42c-0.49-2.2-0.87-4.44-1.34-6.56
			c-0.32,2.61-0.91,4.6-1.54,7.05l-2.41,0.44c-0.69-3.08-1.58-6.14-2.7-9.15l2.17-0.47c0.78,2.2,1.44,4.57,1.94,6.93
			c0.54-2.38,1.02-4.66,1.31-7.41l2.14-0.46c0.56,2.27,1.19,4.86,1.65,7.13C111.23,109.45,111.86,107.04,112.05,103.98z"/>
		<path class="st1" d="M121.25,103.91l-3.78,0.67l-0.01,2.39l3.52-0.62c0,0.66-0.04,1.08-0.13,1.55l-3.38,0.6l0,2.61l4.11-0.72
			c-0.01,0.69-0.05,1.11-0.14,1.58l-5.88,1.04l0-9.62l5.82-1.03C121.39,103.12,121.34,103.45,121.25,103.91z"/>
		<path class="st1" d="M126.61,106.04l3.51-0.62l0,0.09l-0.01,4.15c-0.72,0.63-1.77,1.3-3.29,1.57c-2.73,0.48-3.84-1.1-4.18-3.01
			c-0.55-3.11,0.26-6.36,4.39-7.09c1.08-0.19,2.05-0.07,2.63,0.08l0,1.69c-0.79-0.29-1.67-0.32-2.53-0.17
			c-2.2,0.39-3.04,2.04-2.53,4.94c0.24,1.34,0.9,2.17,2.36,1.91c0.5-0.09,0.95-0.3,1.29-0.57l0.01-1.83l-1.64,0.29L126.61,106.04z"
			/>
	</g>
</g>
</svg>
