<?xml version="1.0" encoding="UTF-8" standalone="no"?>
<!-- Created with Inkscape (http://www.inkscape.org/) -->

<svg
   width="61.499756mm"
   height="17.501307mm"
   viewBox="0 0 61.499756 17.501307"
   version="1.1"
   id="svg5"
   xml:space="preserve"
   xmlns:inkscape="http://www.inkscape.org/namespaces/inkscape"
   xmlns:sodipodi="http://sodipodi.sourceforge.net/DTD/sodipodi-0.dtd"
   xmlns="http://www.w3.org/2000/svg"
   xmlns:svg="http://www.w3.org/2000/svg"><sodipodi:namedview
     id="namedview7"
     pagecolor="#ffffff"
     bordercolor="#666666"
     borderopacity="1.0"
     inkscape:showpageshadow="2"
     inkscape:pageopacity="0.0"
     inkscape:pagecheckerboard="0"
     inkscape:deskcolor="#d1d1d1"
     inkscape:document-units="mm"
     showgrid="false" /><defs
     id="defs2" /><g
     id="g146"
     transform="matrix(0.03527778,0,0,-0.03527778,-1.9255328e-5,17.501306)"><path
       d="M 171.625,9.48047 V 1.16016 h -8.348 v 8.32031 h 8.348 v 0"
       style="fill:#fbc707;fill-opacity:1;fill-rule:nonzero;stroke:none"
       id="path148" /><path
       d="m 199.809,0 h -10.684 v 10.6445 h 10.684 V 0 0"
       style="fill:#fbc707;fill-opacity:1;fill-rule:nonzero;stroke:none"
       id="path150" /><path
       d="m 226.824,0 h -10.679 v 10.6445 h 10.679 V 0 0"
       style="fill:#fbc707;fill-opacity:1;fill-rule:nonzero;stroke:none"
       id="path152" /><path
       d="m 253.844,0 h -10.68 v 10.6445 h 10.68 V 0 0"
       style="fill:#fbc707;fill-opacity:1;fill-rule:nonzero;stroke:none"
       id="path154" /><path
       d="M 117.59,36.4453 V 28.125 h -8.352 v 8.3203 h 8.352 v 0"
       style="fill:#fbc707;fill-opacity:1;fill-rule:nonzero;stroke:none"
       id="path156" /><path
       d="M 144.609,36.4453 V 28.125 h -8.347 v 8.3203 h 8.347 v 0"
       style="fill:#fbc707;fill-opacity:1;fill-rule:nonzero;stroke:none"
       id="path158" /><path
       d="M 173.375,38.1914 V 26.3867 h -11.852 v 11.8047 h 11.852 v 0"
       style="fill:#fbc707;fill-opacity:1;fill-rule:nonzero;stroke:none"
       id="path160" /><path
       d="m 202.145,39.9297 v -15.293 h -15.348 v 15.293 h 15.348 v 0"
       style="fill:#fbc707;fill-opacity:1;fill-rule:nonzero;stroke:none"
       id="path162" /><path
       d="m 229.164,39.9297 v -15.293 h -15.351 v 15.293 h 15.351 v 0"
       style="fill:#fbc707;fill-opacity:1;fill-rule:nonzero;stroke:none"
       id="path164" /><path
       d="m 256.176,39.9297 v -15.293 h -15.348 v 15.293 h 15.348 v 0"
       style="fill:#fbc707;fill-opacity:1;fill-rule:nonzero;stroke:none"
       id="path166" /><path
       d="m 90.5703,63.418 v -8.3203 h -8.3476 v 8.3203 h 8.3476 v 0"
       style="fill:#fbc707;fill-opacity:1;fill-rule:nonzero;stroke:none"
       id="path168" /><path
       d="M 119.34,65.1563 V 53.3594 h -11.852 v 11.7969 h 11.852 v 0"
       style="fill:#fbc707;fill-opacity:1;fill-rule:nonzero;stroke:none"
       id="path170" /><path
       d="M 148.105,66.8945 V 51.6094 h -15.347 v 15.2851 h 15.347 v 0"
       style="fill:#fbc707;fill-opacity:1;fill-rule:nonzero;stroke:none"
       id="path172" /><path
       d="M 175.121,66.8945 V 51.6094 h -15.348 v 15.2851 h 15.348 v 0"
       style="fill:#fbc707;fill-opacity:1;fill-rule:nonzero;stroke:none"
       id="path174" /><path
       d="M 203.891,68.6406 V 49.8711 h -18.848 v 18.7695 h 18.848 v 0"
       style="fill:#fbc707;fill-opacity:1;fill-rule:nonzero;stroke:none"
       id="path176" /><path
       d="M 230.914,68.6406 V 49.8711 h -18.848 v 18.7695 h 18.848 v 0"
       style="fill:#fbc707;fill-opacity:1;fill-rule:nonzero;stroke:none"
       id="path178" /><path
       d="M 257.926,68.6406 V 49.8711 h -18.844 v 18.7695 h 18.844 v 0"
       style="fill:#fbc707;fill-opacity:1;fill-rule:nonzero;stroke:none"
       id="path180" /><path
       d="m 63.5508,90.3789 v -8.3203 h -8.3516 v 8.3203 h 8.3516 v 0"
       style="fill:#fbc707;fill-opacity:1;fill-rule:nonzero;stroke:none"
       id="path182" /><path
       d="M 92.3203,92.1289 V 80.3203 H 80.4688 v 11.8086 h 11.8515 v 0"
       style="fill:#fbc707;fill-opacity:1;fill-rule:nonzero;stroke:none"
       id="path184" /><path
       d="m 121.09,93.8672 v -15.293 h -15.348 v 15.293 h 15.348 v 0"
       style="fill:#fbc707;fill-opacity:1;fill-rule:nonzero;stroke:none"
       id="path186" /><path
       d="M 149.859,95.6133 V 76.8359 h -18.847 v 18.7774 h 18.847 v 0"
       style="fill:#fbc707;fill-opacity:1;fill-rule:nonzero;stroke:none"
       id="path188" /><path
       d="M 176.871,95.6133 V 76.8359 h -18.844 v 18.7774 h 18.844 v 0"
       style="fill:#fbc707;fill-opacity:1;fill-rule:nonzero;stroke:none"
       id="path190" /><path
       d="m 36.5313,117.344 v -8.321 h -8.3477 v 8.321 h 8.3477 v 0"
       style="fill:#fbc707;fill-opacity:1;fill-rule:nonzero;stroke:none"
       id="path192" /><path
       d="M 65.3008,119.09 V 107.285 H 53.457 v 11.805 h 11.8438 v 0"
       style="fill:#fbc707;fill-opacity:1;fill-rule:nonzero;stroke:none"
       id="path194" /><path
       d="M 94.0664,120.828 V 105.535 H 78.7188 v 15.293 h 15.3476 v 0"
       style="fill:#fbc707;fill-opacity:1;fill-rule:nonzero;stroke:none"
       id="path196" /><path
       d="m 122.836,122.578 v -18.769 h -18.848 v 18.769 h 18.848 v 0"
       style="fill:#fbc707;fill-opacity:1;fill-rule:nonzero;stroke:none"
       id="path198" /><path
       d="m 36.5313,144.316 v -8.32 h -8.3477 v 8.32 h 8.3477 v 0"
       style="fill:#fbc707;fill-opacity:1;fill-rule:nonzero;stroke:none"
       id="path200" /><path
       d="M 67.0508,147.793 V 132.508 H 51.7031 v 15.285 h 15.3477 v 0"
       style="fill:#fbc707;fill-opacity:1;fill-rule:nonzero;stroke:none"
       id="path202" /><path
       d="M 95.8203,149.539 V 130.77 H 76.9727 v 18.769 h 18.8476 v 0"
       style="fill:#fbc707;fill-opacity:1;fill-rule:nonzero;stroke:none"
       id="path204" /><path
       d="m 9.51563,171.277 v -8.316 H 1.16797 v 8.316 h 8.34766 v 0"
       style="fill:#fbc707;fill-opacity:1;fill-rule:nonzero;stroke:none"
       id="path206" /><path
       d="M 38.2852,173.027 V 161.219 H 26.4336 v 11.808 h 11.8516 v 0"
       style="fill:#fbc707;fill-opacity:1;fill-rule:nonzero;stroke:none"
       id="path208" /><path
       d="M 67.0508,174.766 V 159.473 H 51.7031 v 15.293 h 15.3477 v 0"
       style="fill:#fbc707;fill-opacity:1;fill-rule:nonzero;stroke:none"
       id="path210" /><path
       d="M 95.8203,176.512 V 157.734 H 76.9727 v 18.778 h 18.8476 v 0"
       style="fill:#fbc707;fill-opacity:1;fill-rule:nonzero;stroke:none"
       id="path212" /><path
       d="M 10.6836,188.758 H 0 v 10.644 h 10.6836 v -10.644 0"
       style="fill:#fbc707;fill-opacity:1;fill-rule:nonzero;stroke:none"
       id="path214" /><path
       d="M 40.0352,201.727 V 186.445 H 24.6875 v 15.282 h 15.3477 v 0"
       style="fill:#fbc707;fill-opacity:1;fill-rule:nonzero;stroke:none"
       id="path216" /><path
       d="M 68.8047,203.477 V 184.695 H 49.957 v 18.782 h 18.8477 v 0"
       style="fill:#fbc707;fill-opacity:1;fill-rule:nonzero;stroke:none"
       id="path218" /><path
       d="M 10.6836,215.73 H 0 v 10.645 h 10.6836 v -10.645 0"
       style="fill:#fbc707;fill-opacity:1;fill-rule:nonzero;stroke:none"
       id="path220" /><path
       d="M 40.0352,228.691 V 213.406 H 24.6875 v 15.285 h 15.3477 v 0"
       style="fill:#fbc707;fill-opacity:1;fill-rule:nonzero;stroke:none"
       id="path222" /><path
       d="m 68.8047,230.438 v -18.77 H 49.957 v 18.77 h 18.8477 v 0"
       style="fill:#fbc707;fill-opacity:1;fill-rule:nonzero;stroke:none"
       id="path224" /><path
       d="M 10.6836,242.695 H 0 v 10.645 h 10.6836 v -10.645 0"
       style="fill:#fbc707;fill-opacity:1;fill-rule:nonzero;stroke:none"
       id="path226" /><path
       d="M 40.0352,255.664 V 240.371 H 24.6875 v 15.293 h 15.3477 v 0"
       style="fill:#fbc707;fill-opacity:1;fill-rule:nonzero;stroke:none"
       id="path228" /><path
       d="M 68.8047,257.402 V 238.621 H 49.957 v 18.781 h 18.8477 v 0"
       style="fill:#fbc707;fill-opacity:1;fill-rule:nonzero;stroke:none"
       id="path230" /><path
       d="M 325.398,9.48047 V 1.16016 h 8.348 v 8.32031 h -8.348 v 0"
       style="fill:#fbc707;fill-opacity:1;fill-rule:nonzero;stroke:none"
       id="path232" /><path
       d="M 307.895,10.6445 V 0 h -10.684 v 10.6445 h 10.684 v 0"
       style="fill:#fbc707;fill-opacity:1;fill-rule:nonzero;stroke:none"
       id="path234" /><path
       d="M 280.875,10.6445 V 0 h -10.684 v 10.6445 h 10.684 v 0"
       style="fill:#fbc707;fill-opacity:1;fill-rule:nonzero;stroke:none"
       id="path236" /><path
       d="M 253.863,10.6445 V 0 H 243.18 v 10.6445 h 10.683 v 0"
       style="fill:#fbc707;fill-opacity:1;fill-rule:nonzero;stroke:none"
       id="path238" /><path
       d="M 379.434,36.4453 V 28.125 h 8.347 v 8.3203 h -8.347 v 0"
       style="fill:#fbc707;fill-opacity:1;fill-rule:nonzero;stroke:none"
       id="path240" /><path
       d="M 352.41,36.4453 V 28.125 h 8.352 v 8.3203 h -8.352 v 0"
       style="fill:#fbc707;fill-opacity:1;fill-rule:nonzero;stroke:none"
       id="path242" /><path
       d="M 323.648,38.1914 V 26.3867 h 11.848 v 11.8047 h -11.848 v 0"
       style="fill:#fbc707;fill-opacity:1;fill-rule:nonzero;stroke:none"
       id="path244" /><path
       d="m 294.879,39.9297 v -15.293 h 15.351 v 15.293 h -15.351 v 0"
       style="fill:#fbc707;fill-opacity:1;fill-rule:nonzero;stroke:none"
       id="path246" /><path
       d="m 267.859,39.9297 v -15.293 h 15.348 v 15.293 h -15.348 v 0"
       style="fill:#fbc707;fill-opacity:1;fill-rule:nonzero;stroke:none"
       id="path248" /><path
       d="m 240.84,39.9297 v -15.293 h 15.348 v 15.293 H 240.84 v 0"
       style="fill:#fbc707;fill-opacity:1;fill-rule:nonzero;stroke:none"
       id="path250" /><path
       d="m 406.453,63.418 v -8.3203 h 8.348 v 8.3203 h -8.348 v 0"
       style="fill:#fbc707;fill-opacity:1;fill-rule:nonzero;stroke:none"
       id="path252" /><path
       d="M 377.688,65.1563 V 53.3594 h 11.843 v 11.7969 h -11.843 v 0"
       style="fill:#fbc707;fill-opacity:1;fill-rule:nonzero;stroke:none"
       id="path254" /><path
       d="M 348.918,66.8945 V 51.6094 h 15.344 v 15.2851 h -15.344 v 0"
       style="fill:#fbc707;fill-opacity:1;fill-rule:nonzero;stroke:none"
       id="path256" /><path
       d="M 321.898,66.8945 V 51.6094 h 15.348 v 15.2851 h -15.348 v 0"
       style="fill:#fbc707;fill-opacity:1;fill-rule:nonzero;stroke:none"
       id="path258" /><path
       d="M 293.129,68.6406 V 49.8711 h 18.848 v 18.7695 h -18.848 v 0"
       style="fill:#fbc707;fill-opacity:1;fill-rule:nonzero;stroke:none"
       id="path260" /><path
       d="M 266.109,68.6406 V 49.8711 h 18.848 v 18.7695 h -18.848 v 0"
       style="fill:#fbc707;fill-opacity:1;fill-rule:nonzero;stroke:none"
       id="path262" /><path
       d="M 239.098,68.6406 V 49.8711 h 18.847 v 18.7695 h -18.847 v 0"
       style="fill:#fbc707;fill-opacity:1;fill-rule:nonzero;stroke:none"
       id="path264" /><path
       d="m 433.469,90.3789 v -8.3203 h 8.347 v 8.3203 h -8.347 v 0"
       style="fill:#fbc707;fill-opacity:1;fill-rule:nonzero;stroke:none"
       id="path266" /><path
       d="M 404.703,92.1289 V 80.3203 h 11.844 v 11.8086 h -11.844 v 0"
       style="fill:#fbc707;fill-opacity:1;fill-rule:nonzero;stroke:none"
       id="path268" /><path
       d="m 375.934,93.8672 v -15.293 h 15.351 v 15.293 h -15.351 v 0"
       style="fill:#fbc707;fill-opacity:1;fill-rule:nonzero;stroke:none"
       id="path270" /><path
       d="M 347.164,95.6133 V 76.8359 h 18.848 v 18.7774 h -18.848 v 0"
       style="fill:#fbc707;fill-opacity:1;fill-rule:nonzero;stroke:none"
       id="path272" /><path
       d="M 320.152,95.6133 V 76.8359 h 18.84 v 18.7774 h -18.84 v 0"
       style="fill:#fbc707;fill-opacity:1;fill-rule:nonzero;stroke:none"
       id="path274" /><path
       d="m 460.488,117.344 v -8.321 h 8.352 v 8.321 h -8.352 v 0"
       style="fill:#fbc707;fill-opacity:1;fill-rule:nonzero;stroke:none"
       id="path276" /><path
       d="m 431.719,119.09 v -11.805 h 11.851 v 11.805 h -11.851 v 0"
       style="fill:#fbc707;fill-opacity:1;fill-rule:nonzero;stroke:none"
       id="path278" /><path
       d="m 402.953,120.828 v -15.293 h 15.344 v 15.293 h -15.344 v 0"
       style="fill:#fbc707;fill-opacity:1;fill-rule:nonzero;stroke:none"
       id="path280" /><path
       d="m 374.184,122.578 v -18.769 h 18.847 v 18.769 h -18.847 v 0"
       style="fill:#fbc707;fill-opacity:1;fill-rule:nonzero;stroke:none"
       id="path282" /><path
       d="m 460.488,144.316 v -8.32 h 8.352 v 8.32 h -8.352 v 0"
       style="fill:#fbc707;fill-opacity:1;fill-rule:nonzero;stroke:none"
       id="path284" /><path
       d="m 429.973,147.793 v -15.285 h 15.343 v 15.285 h -15.343 v 0"
       style="fill:#fbc707;fill-opacity:1;fill-rule:nonzero;stroke:none"
       id="path286" /><path
       d="M 401.207,149.539 V 130.77 h 18.844 v 18.769 h -18.844 v 0"
       style="fill:#fbc707;fill-opacity:1;fill-rule:nonzero;stroke:none"
       id="path288" /><path
       d="m 487.504,171.277 v -8.316 h 8.351 v 8.316 h -8.351 v 0"
       style="fill:#fbc707;fill-opacity:1;fill-rule:nonzero;stroke:none"
       id="path290" /><path
       d="m 458.738,173.027 v -11.808 h 11.844 v 11.808 h -11.844 v 0"
       style="fill:#fbc707;fill-opacity:1;fill-rule:nonzero;stroke:none"
       id="path292" /><path
       d="m 429.973,174.766 v -15.293 h 15.343 v 15.293 h -15.343 v 0"
       style="fill:#fbc707;fill-opacity:1;fill-rule:nonzero;stroke:none"
       id="path294" /><path
       d="m 401.207,176.512 v -18.778 h 18.844 v 18.778 h -18.844 v 0"
       style="fill:#fbc707;fill-opacity:1;fill-rule:nonzero;stroke:none"
       id="path296" /><path
       d="M 497.016,199.402 V 188.758 H 486.34 v 10.644 h 10.676 v 0"
       style="fill:#fbc707;fill-opacity:1;fill-rule:nonzero;stroke:none"
       id="path298" /><path
       d="m 456.988,201.727 v -15.282 h 15.348 v 15.282 h -15.348 v 0"
       style="fill:#fbc707;fill-opacity:1;fill-rule:nonzero;stroke:none"
       id="path300" /><path
       d="m 428.219,203.477 v -18.782 h 18.847 v 18.782 h -18.847 v 0"
       style="fill:#fbc707;fill-opacity:1;fill-rule:nonzero;stroke:none"
       id="path302" /><path
       d="M 497.016,226.375 V 215.73 H 486.34 v 10.645 h 10.676 v 0"
       style="fill:#fbc707;fill-opacity:1;fill-rule:nonzero;stroke:none"
       id="path304" /><path
       d="m 456.988,228.691 v -15.285 h 15.348 v 15.285 h -15.348 v 0"
       style="fill:#fbc707;fill-opacity:1;fill-rule:nonzero;stroke:none"
       id="path306" /><path
       d="m 428.219,230.438 v -18.77 h 18.847 v 18.77 h -18.847 v 0"
       style="fill:#fbc707;fill-opacity:1;fill-rule:nonzero;stroke:none"
       id="path308" /><path
       d="M 497.016,253.34 V 242.695 H 486.34 v 10.645 h 10.676 v 0"
       style="fill:#fbc707;fill-opacity:1;fill-rule:nonzero;stroke:none"
       id="path310" /><path
       d="m 456.988,255.664 v -15.293 h 15.348 v 15.293 h -15.348 v 0"
       style="fill:#fbc707;fill-opacity:1;fill-rule:nonzero;stroke:none"
       id="path312" /><path
       d="m 428.219,257.402 v -18.781 h 18.847 v 18.781 h -18.847 v 0"
       style="fill:#fbc707;fill-opacity:1;fill-rule:nonzero;stroke:none"
       id="path314" /><path
       d="m 171.625,486.582 v 8.32 h -8.348 v -8.32 h 8.348 v 0"
       style="fill:#fbc707;fill-opacity:1;fill-rule:nonzero;stroke:none"
       id="path316" /><path
       d="m 189.125,485.418 v 10.645 h 10.684 v -10.645 h -10.684 v 0"
       style="fill:#fbc707;fill-opacity:1;fill-rule:nonzero;stroke:none"
       id="path318" /><path
       d="m 216.145,485.418 v 10.645 h 10.679 v -10.645 h -10.679 v 0"
       style="fill:#fbc707;fill-opacity:1;fill-rule:nonzero;stroke:none"
       id="path320" /><path
       d="m 243.164,485.418 v 10.645 h 10.68 v -10.645 h -10.68 v 0"
       style="fill:#fbc707;fill-opacity:1;fill-rule:nonzero;stroke:none"
       id="path322" /><path
       d="m 117.59,459.617 v 8.317 h -8.352 v -8.317 h 8.352 v 0"
       style="fill:#fbc707;fill-opacity:1;fill-rule:nonzero;stroke:none"
       id="path324" /><path
       d="m 144.609,459.617 v 8.317 h -8.347 v -8.317 h 8.347 v 0"
       style="fill:#fbc707;fill-opacity:1;fill-rule:nonzero;stroke:none"
       id="path326" /><path
       d="m 173.375,457.875 v 11.809 h -11.852 v -11.809 h 11.852 v 0"
       style="fill:#fbc707;fill-opacity:1;fill-rule:nonzero;stroke:none"
       id="path328" /><path
       d="m 202.145,456.133 v 15.289 h -15.348 v -15.289 h 15.348 v 0"
       style="fill:#fbc707;fill-opacity:1;fill-rule:nonzero;stroke:none"
       id="path330" /><path
       d="m 229.164,456.133 v 15.289 h -15.351 v -15.289 h 15.351 v 0"
       style="fill:#fbc707;fill-opacity:1;fill-rule:nonzero;stroke:none"
       id="path332" /><path
       d="m 256.176,456.133 v 15.289 h -15.348 v -15.289 h 15.348 v 0"
       style="fill:#fbc707;fill-opacity:1;fill-rule:nonzero;stroke:none"
       id="path334" /><path
       d="m 90.5703,432.656 v 8.317 h -8.3476 v -8.317 h 8.3476 v 0"
       style="fill:#fbc707;fill-opacity:1;fill-rule:nonzero;stroke:none"
       id="path336" /><path
       d="m 119.34,430.906 v 11.805 h -11.852 v -11.805 h 11.852 v 0"
       style="fill:#fbc707;fill-opacity:1;fill-rule:nonzero;stroke:none"
       id="path338" /><path
       d="m 148.105,429.164 v 15.289 h -15.347 v -15.289 h 15.347 v 0"
       style="fill:#fbc707;fill-opacity:1;fill-rule:nonzero;stroke:none"
       id="path340" /><path
       d="m 175.121,429.164 v 15.289 h -15.348 v -15.289 h 15.348 v 0"
       style="fill:#fbc707;fill-opacity:1;fill-rule:nonzero;stroke:none"
       id="path342" /><path
       d="m 203.891,427.426 v 18.769 h -18.848 v -18.769 h 18.848 v 0"
       style="fill:#fbc707;fill-opacity:1;fill-rule:nonzero;stroke:none"
       id="path344" /><path
       d="m 230.914,427.426 v 18.769 h -18.848 v -18.769 h 18.848 v 0"
       style="fill:#fbc707;fill-opacity:1;fill-rule:nonzero;stroke:none"
       id="path346" /><path
       d="m 257.926,427.426 v 18.769 h -18.844 v -18.769 h 18.844 v 0"
       style="fill:#fbc707;fill-opacity:1;fill-rule:nonzero;stroke:none"
       id="path348" /><path
       d="m 63.5508,405.688 v 8.316 h -8.3516 v -8.316 h 8.3516 v 0"
       style="fill:#fbc707;fill-opacity:1;fill-rule:nonzero;stroke:none"
       id="path350" /><path
       d="m 92.3203,403.945 v 11.801 H 80.4688 v -11.801 h 11.8515 v 0"
       style="fill:#fbc707;fill-opacity:1;fill-rule:nonzero;stroke:none"
       id="path352" /><path
       d="m 121.09,402.195 v 15.293 h -15.348 v -15.293 h 15.348 v 0"
       style="fill:#fbc707;fill-opacity:1;fill-rule:nonzero;stroke:none"
       id="path354" /><path
       d="m 149.859,400.457 v 18.781 h -18.847 v -18.781 h 18.847 v 0"
       style="fill:#fbc707;fill-opacity:1;fill-rule:nonzero;stroke:none"
       id="path356" /><path
       d="m 176.871,400.457 v 18.781 h -18.844 v -18.781 h 18.844 v 0"
       style="fill:#fbc707;fill-opacity:1;fill-rule:nonzero;stroke:none"
       id="path358" /><path
       d="m 36.5313,378.727 v 8.308 h -8.3477 v -8.308 h 8.3477 v 0"
       style="fill:#fbc707;fill-opacity:1;fill-rule:nonzero;stroke:none"
       id="path360" /><path
       d="m 65.3008,376.98 v 11.805 H 53.457 V 376.98 h 11.8438 v 0"
       style="fill:#fbc707;fill-opacity:1;fill-rule:nonzero;stroke:none"
       id="path362" /><path
       d="m 94.0664,375.238 v 15.289 H 78.7188 v -15.289 h 15.3476 v 0"
       style="fill:#fbc707;fill-opacity:1;fill-rule:nonzero;stroke:none"
       id="path364" /><path
       d="m 122.836,373.496 v 18.774 h -18.848 v -18.774 h 18.848 v 0"
       style="fill:#fbc707;fill-opacity:1;fill-rule:nonzero;stroke:none"
       id="path366" /><path
       d="m 36.5313,351.758 v 8.32 h -8.3477 v -8.32 h 8.3477 v 0"
       style="fill:#fbc707;fill-opacity:1;fill-rule:nonzero;stroke:none"
       id="path368" /><path
       d="m 67.0508,348.27 v 15.289 H 51.7031 V 348.27 h 15.3477 v 0"
       style="fill:#fbc707;fill-opacity:1;fill-rule:nonzero;stroke:none"
       id="path370" /><path
       d="m 95.8203,346.527 v 18.774 H 76.9727 v -18.774 h 18.8476 v 0"
       style="fill:#fbc707;fill-opacity:1;fill-rule:nonzero;stroke:none"
       id="path372" /><path
       d="m 9.51563,324.789 v 8.32 H 1.16797 v -8.32 h 8.34766 v 0"
       style="fill:#fbc707;fill-opacity:1;fill-rule:nonzero;stroke:none"
       id="path374" /><path
       d="m 38.2852,323.047 v 11.805 H 26.4336 v -11.805 h 11.8516 v 0"
       style="fill:#fbc707;fill-opacity:1;fill-rule:nonzero;stroke:none"
       id="path376" /><path
       d="m 67.0508,321.305 v 15.293 H 51.7031 v -15.293 h 15.3477 v 0"
       style="fill:#fbc707;fill-opacity:1;fill-rule:nonzero;stroke:none"
       id="path378" /><path
       d="M 95.8203,319.559 V 338.34 H 76.9727 v -18.781 h 18.8476 v 0"
       style="fill:#fbc707;fill-opacity:1;fill-rule:nonzero;stroke:none"
       id="path380" /><path
       d="m 0,296.664 v 10.641 H 10.6836 V 296.664 H 0 v 0"
       style="fill:#fbc707;fill-opacity:1;fill-rule:nonzero;stroke:none"
       id="path382" /><path
       d="m 40.0352,294.34 v 15.289 H 24.6875 V 294.34 h 15.3477 v 0"
       style="fill:#fbc707;fill-opacity:1;fill-rule:nonzero;stroke:none"
       id="path384" /><path
       d="m 68.8047,292.598 v 18.773 H 49.957 v -18.773 h 18.8477 v 0"
       style="fill:#fbc707;fill-opacity:1;fill-rule:nonzero;stroke:none"
       id="path386" /><path
       d="m 0,269.695 v 10.641 H 10.6836 V 269.695 H 0 v 0"
       style="fill:#fbc707;fill-opacity:1;fill-rule:nonzero;stroke:none"
       id="path388" /><path
       d="M 40.0352,267.371 V 282.66 H 24.6875 v -15.289 h 15.3477 v 0"
       style="fill:#fbc707;fill-opacity:1;fill-rule:nonzero;stroke:none"
       id="path390" /><path
       d="m 68.8047,265.629 v 18.773 H 49.957 v -18.773 h 18.8477 v 0"
       style="fill:#fbc707;fill-opacity:1;fill-rule:nonzero;stroke:none"
       id="path392" /><path
       d="m 0,242.734 v 10.641 H 10.6836 V 242.734 H 0 v 0"
       style="fill:#fbc707;fill-opacity:1;fill-rule:nonzero;stroke:none"
       id="path394" /><path
       d="m 40.0352,240.41 v 15.289 H 24.6875 V 240.41 h 15.3477 v 0"
       style="fill:#fbc707;fill-opacity:1;fill-rule:nonzero;stroke:none"
       id="path396" /><path
       d="m 68.8047,238.66 v 18.781 H 49.957 V 238.66 h 18.8477 v 0"
       style="fill:#fbc707;fill-opacity:1;fill-rule:nonzero;stroke:none"
       id="path398" /><path
       d="m 325.398,486.582 v 8.32 h 8.348 v -8.32 h -8.348 v 0"
       style="fill:#fbc707;fill-opacity:1;fill-rule:nonzero;stroke:none"
       id="path400" /><path
       d="m 297.211,496.063 h 10.684 v -10.645 h -10.684 v 10.645 0"
       style="fill:#fbc707;fill-opacity:1;fill-rule:nonzero;stroke:none"
       id="path402" /><path
       d="m 270.191,496.063 h 10.684 v -10.645 h -10.684 v 10.645 0"
       style="fill:#fbc707;fill-opacity:1;fill-rule:nonzero;stroke:none"
       id="path404" /><path
       d="m 243.18,496.063 h 10.683 V 485.418 H 243.18 v 10.645 0"
       style="fill:#fbc707;fill-opacity:1;fill-rule:nonzero;stroke:none"
       id="path406" /><path
       d="m 379.434,459.617 v 8.317 h 8.347 v -8.317 h -8.347 v 0"
       style="fill:#fbc707;fill-opacity:1;fill-rule:nonzero;stroke:none"
       id="path408" /><path
       d="m 352.41,459.617 v 8.317 h 8.352 v -8.317 h -8.352 v 0"
       style="fill:#fbc707;fill-opacity:1;fill-rule:nonzero;stroke:none"
       id="path410" /><path
       d="m 323.648,457.875 v 11.809 h 11.848 v -11.809 h -11.848 v 0"
       style="fill:#fbc707;fill-opacity:1;fill-rule:nonzero;stroke:none"
       id="path412" /><path
       d="m 294.879,456.133 v 15.289 h 15.351 v -15.289 h -15.351 v 0"
       style="fill:#fbc707;fill-opacity:1;fill-rule:nonzero;stroke:none"
       id="path414" /><path
       d="m 267.859,456.133 v 15.289 h 15.348 v -15.289 h -15.348 v 0"
       style="fill:#fbc707;fill-opacity:1;fill-rule:nonzero;stroke:none"
       id="path416" /><path
       d="m 240.84,456.133 v 15.289 h 15.348 V 456.133 H 240.84 v 0"
       style="fill:#fbc707;fill-opacity:1;fill-rule:nonzero;stroke:none"
       id="path418" /><path
       d="m 406.453,432.656 v 8.317 h 8.348 v -8.317 h -8.348 v 0"
       style="fill:#fbc707;fill-opacity:1;fill-rule:nonzero;stroke:none"
       id="path420" /><path
       d="m 377.688,430.906 v 11.805 h 11.843 v -11.805 h -11.843 v 0"
       style="fill:#fbc707;fill-opacity:1;fill-rule:nonzero;stroke:none"
       id="path422" /><path
       d="m 348.918,429.164 v 15.289 h 15.344 v -15.289 h -15.344 v 0"
       style="fill:#fbc707;fill-opacity:1;fill-rule:nonzero;stroke:none"
       id="path424" /><path
       d="m 321.898,429.164 v 15.289 h 15.348 v -15.289 h -15.348 v 0"
       style="fill:#fbc707;fill-opacity:1;fill-rule:nonzero;stroke:none"
       id="path426" /><path
       d="m 293.129,427.426 v 18.769 h 18.848 v -18.769 h -18.848 v 0"
       style="fill:#fbc707;fill-opacity:1;fill-rule:nonzero;stroke:none"
       id="path428" /><path
       d="m 266.109,427.426 v 18.769 h 18.848 v -18.769 h -18.848 v 0"
       style="fill:#fbc707;fill-opacity:1;fill-rule:nonzero;stroke:none"
       id="path430" /><path
       d="m 239.098,427.426 v 18.769 h 18.847 v -18.769 h -18.847 v 0"
       style="fill:#fbc707;fill-opacity:1;fill-rule:nonzero;stroke:none"
       id="path432" /><path
       d="m 433.469,405.688 v 8.316 h 8.347 v -8.316 h -8.347 v 0"
       style="fill:#fbc707;fill-opacity:1;fill-rule:nonzero;stroke:none"
       id="path434" /><path
       d="m 404.703,403.945 v 11.801 h 11.844 v -11.801 h -11.844 v 0"
       style="fill:#fbc707;fill-opacity:1;fill-rule:nonzero;stroke:none"
       id="path436" /><path
       d="m 375.934,402.195 v 15.293 h 15.351 v -15.293 h -15.351 v 0"
       style="fill:#fbc707;fill-opacity:1;fill-rule:nonzero;stroke:none"
       id="path438" /><path
       d="m 347.164,400.457 v 18.781 h 18.848 v -18.781 h -18.848 v 0"
       style="fill:#fbc707;fill-opacity:1;fill-rule:nonzero;stroke:none"
       id="path440" /><path
       d="m 320.152,400.457 v 18.781 h 18.84 v -18.781 h -18.84 v 0"
       style="fill:#fbc707;fill-opacity:1;fill-rule:nonzero;stroke:none"
       id="path442" /><path
       d="m 460.488,378.727 v 8.308 h 8.352 v -8.308 h -8.352 v 0"
       style="fill:#fbc707;fill-opacity:1;fill-rule:nonzero;stroke:none"
       id="path444" /><path
       d="m 431.719,376.98 v 11.805 H 443.57 V 376.98 h -11.851 v 0"
       style="fill:#fbc707;fill-opacity:1;fill-rule:nonzero;stroke:none"
       id="path446" /><path
       d="m 402.953,375.238 v 15.289 h 15.344 v -15.289 h -15.344 v 0"
       style="fill:#fbc707;fill-opacity:1;fill-rule:nonzero;stroke:none"
       id="path448" /><path
       d="m 374.184,373.496 v 18.774 h 18.847 v -18.774 h -18.847 v 0"
       style="fill:#fbc707;fill-opacity:1;fill-rule:nonzero;stroke:none"
       id="path450" /><path
       d="m 460.488,351.758 v 8.32 h 8.352 v -8.32 h -8.352 v 0"
       style="fill:#fbc707;fill-opacity:1;fill-rule:nonzero;stroke:none"
       id="path452" /><path
       d="m 429.973,348.27 v 15.289 h 15.343 V 348.27 h -15.343 v 0"
       style="fill:#fbc707;fill-opacity:1;fill-rule:nonzero;stroke:none"
       id="path454" /><path
       d="m 401.207,346.527 v 18.774 h 18.844 v -18.774 h -18.844 v 0"
       style="fill:#fbc707;fill-opacity:1;fill-rule:nonzero;stroke:none"
       id="path456" /><path
       d="m 487.504,324.789 v 8.32 h 8.351 v -8.32 h -8.351 v 0"
       style="fill:#fbc707;fill-opacity:1;fill-rule:nonzero;stroke:none"
       id="path458" /><path
       d="m 458.738,323.047 v 11.805 h 11.844 v -11.805 h -11.844 v 0"
       style="fill:#fbc707;fill-opacity:1;fill-rule:nonzero;stroke:none"
       id="path460" /><path
       d="m 429.973,321.305 v 15.293 h 15.343 v -15.293 h -15.343 v 0"
       style="fill:#fbc707;fill-opacity:1;fill-rule:nonzero;stroke:none"
       id="path462" /><path
       d="m 401.207,319.559 v 18.781 h 18.844 v -18.781 h -18.844 v 0"
       style="fill:#fbc707;fill-opacity:1;fill-rule:nonzero;stroke:none"
       id="path464" /><path
       d="m 486.34,307.305 h 10.676 V 296.664 H 486.34 v 10.641 0"
       style="fill:#fbc707;fill-opacity:1;fill-rule:nonzero;stroke:none"
       id="path466" /><path
       d="m 456.988,294.34 v 15.289 h 15.348 V 294.34 h -15.348 v 0"
       style="fill:#fbc707;fill-opacity:1;fill-rule:nonzero;stroke:none"
       id="path468" /><path
       d="m 428.219,292.598 v 18.773 h 18.847 v -18.773 h -18.847 v 0"
       style="fill:#fbc707;fill-opacity:1;fill-rule:nonzero;stroke:none"
       id="path470" /><path
       d="m 486.34,280.336 h 10.676 V 269.695 H 486.34 v 10.641 0"
       style="fill:#fbc707;fill-opacity:1;fill-rule:nonzero;stroke:none"
       id="path472" /><path
       d="m 456.988,267.371 v 15.289 h 15.348 v -15.289 h -15.348 v 0"
       style="fill:#fbc707;fill-opacity:1;fill-rule:nonzero;stroke:none"
       id="path474" /><path
       d="m 428.219,265.629 v 18.773 h 18.847 v -18.773 h -18.847 v 0"
       style="fill:#fbc707;fill-opacity:1;fill-rule:nonzero;stroke:none"
       id="path476" /><path
       d="m 486.34,253.375 h 10.676 V 242.734 H 486.34 v 10.641 0"
       style="fill:#fbc707;fill-opacity:1;fill-rule:nonzero;stroke:none"
       id="path478" /><path
       d="m 456.988,240.41 v 15.289 h 15.348 V 240.41 h -15.348 v 0"
       style="fill:#fbc707;fill-opacity:1;fill-rule:nonzero;stroke:none"
       id="path480" /><path
       d="m 428.219,238.66 v 18.781 h 18.847 V 238.66 h -18.847 v 0"
       style="fill:#fbc707;fill-opacity:1;fill-rule:nonzero;stroke:none"
       id="path482" /><path
       d="m 73.4375,205.84 h 14.2266 v 3.523 H 73.4336 v 77.348 h 14.2305 v 3.519 H 73.4375 l 0.043,24.379 h 27.0275 l -0.028,25.86 h 14.227 v 3.519 H 100.48 l 0.028,24.328 h 27.015 v 26.809 l 54.02,0.008 v 27.195 l 24.988,0.016 0.008,-14.172 h 3.527 v 14.172 h 77.637 v -14.172 h 3.535 v 14.172 l 24.196,-0.016 v -27.195 l 54.023,-0.008 v -26.809 h 27.004 l 0.016,-24.328 H 382.25 v -3.519 h 14.227 l -0.024,-25.86 h 27.02 l 0.004,-24.379 h -14.231 v -3.519 h 14.231 v -77.348 h -14.231 v -3.523 h 14.231 l -0.004,-24.61 h -27.02 l 0.024,-25.769 H 382.25 v -3.52 h 14.227 l -0.016,-24.636 H 369.457 V 100.293 H 315.434 V 73.6719 l -24.196,-0.0313 v 14.1797 h -3.535 V 73.6406 h -77.637 v 14.1797 h -3.527 l -0.008,-14.1797 -24.988,0.0313 v 26.6211 h -54.02 v 27.012 h -27.015 l -0.028,24.636 h 14.227 v 3.52 H 100.48 l 0.028,25.769 H 73.4805 l -0.043,24.61 v 0"
       style="fill:#fbc707;fill-opacity:1;fill-rule:nonzero;stroke:none"
       id="path484" /><path
       d="m 339.801,171.551 c 3.734,-0.254 12.722,-1.375 4.601,-14.434 -5.964,-9.578 -24.738,-16.512 -24.738,-16.512 0,0 8.949,-0.402 7.453,-5.39 -1.48,-4.981 -4.847,-8.652 -29.082,-10.098 -24.246,-1.445 -66.883,16.914 -71.851,19.024 1.242,-4.727 1.48,-16.817 -8.332,-16.016 -6.336,0.535 -8.082,7.617 -7.207,8.535 0.871,0.918 7.207,2.235 5.96,6.426 -1.238,4.199 -10.062,11.016 -21.625,13.769 -1.617,-0.39 -7.335,-10.226 -9.691,-11.925 4.227,-0.137 14.789,-0.918 12.176,-11.153 -2.61,-10.242 -14.789,-5.781 -14.789,-1.441 0,2.223 2.894,0.32 2.234,3.805 -0.375,1.964 -3.726,2.492 -7.453,-1.844 -3.73,-4.328 -13.059,-7.082 -20.269,-7.219 -7.211,-0.137 -23.743,3.547 -25.231,20.735 -1.492,17.175 15.902,24.277 21.758,24.792 5.84,0.52 12.301,0.137 14.289,0.137 1.121,1.574 2.238,4.981 0.242,6.692 -1.98,1.699 0.504,7.734 6.348,7.597 5.836,-0.136 11.437,-5.371 5.722,-15.343 3.477,-2.5 6.09,-3.016 7.207,-2.625 1.122,0.39 2.481,4.988 2.86,7.089 0.887,4.969 1.613,14.032 -0.742,19.403 -2.368,5.383 -4.731,3.554 -6.965,3.808 -2.231,0.266 -4.727,3.02 -4.977,7.481 -0.242,4.465 4.606,8.008 8.453,7.871 3.852,-0.125 9.328,-5.371 10.942,-9.969 1.738,9.715 -0.242,28.074 -2.989,34.5 -2.726,6.438 -4.968,8.926 -10.437,8.797 -5.477,-0.133 -4.602,-3.414 -7.949,-4.988 -7.09,3.144 -6.84,12.203 -2.989,16.394 3.852,4.199 11.063,3.809 12.559,3.809 0.934,1.586 1.488,2.621 2.856,2.754 3.843,0.371 7.707,-4.199 10.191,-7.086 2.488,-2.883 4.727,-9.574 4.852,-12.727 0.859,1.321 0.992,1.442 1.613,2.629 0.621,1.18 2.609,1.707 2.609,1.707 0,0 0.129,0.914 0,1.832 -1.121,0.793 -2.73,3.285 -3.101,5.258 -0.379,1.953 1.359,5.246 1.359,5.633 0,0.398 -1.984,0.265 -2.977,4.594 -0.996,4.332 4.094,13.25 4.969,14.429 0.871,1.184 2.11,7.879 -1.117,8.266 -8.523,1.035 -3.73,-3.012 -6.957,-2.496 -7.688,1.254 -7.59,17.324 1.609,19.679 9.203,2.364 15.41,-7.351 16.778,-9.832 0.5,1.829 1.992,9.309 8.211,24.661 6.218,15.351 10.195,15.746 10.32,20.726 0.121,4.985 -3.609,4.203 -6.957,4.332 0,6.696 2.351,14.43 10.808,14.957 8.454,0.528 11.586,-7.648 11.586,-7.648 0,0 29.231,22.414 60.497,22.164 31.269,-0.235 38.574,-25.297 38.343,-33.727 -0.218,-8.425 -2.551,-22.242 -16.886,-25.769 -6.848,-1.688 -13.922,9.394 -7.079,17.578 0,0 7.993,-6.016 11.641,-3.129 -3.879,0.48 -4.332,2.172 -4.332,3.129 0,0.969 7.766,4.582 4.785,10.363 -1.133,1.203 -3.418,-6.023 -7.293,-1.449 -2.285,4.582 2.051,12.769 -11.871,13.254 2.274,-1.203 11.184,-14.699 -1.141,-17.828 -14.75,-2.262 2.075,17.554 -29.445,18.308 0,0 -12.789,0.489 -24.199,-10.843 6.391,-1.442 15.289,-11.082 -0.457,-17.098 -1.828,2.406 3.875,6.746 -7.766,5.293 -11.64,-1.442 -26.703,-18.547 -29.218,-44.317 5.476,4.813 9.359,0.958 11.187,-2.179 1.828,-3.129 -2.508,-7.223 -4.797,-7.461 -2.277,-0.242 -5.703,-2.172 -5.926,-7.469 -0.234,-5.293 -1.148,-10.84 -5.484,-12.769 0,0 2.691,-2.442 1.82,-5.852 -0.867,-3.41 -3.359,-4.594 -4.355,-4.852 l 0.129,-0.664 c 0,0 3.105,-5.246 1.984,-12.461 2.492,1.18 9.199,3.938 12.184,-1.972 2.98,-5.91 -0.375,-10.481 -3.981,-11.926 -3.601,-1.445 -3.718,-1.18 -5.84,0.918 -2.105,2.102 -5.093,-1.316 -5.218,-3.934 -0.125,-2.617 -5.473,-18.644 -7.461,-26.125 -1.992,-7.468 -10.809,-26.23 -12.551,-28.984 2.355,-0.652 8.82,-5.906 21.879,-5.117 13.051,0.793 17.773,6.164 18.769,7.344 -1.746,0.527 -2.242,6.828 0.746,8.664 2.985,1.836 12.305,1.699 15.54,-6.289 3.242,-8.008 -0.25,-17.727 -14.918,-20.09 8.945,-1.446 10.687,-5.762 40.398,-6.942 29.715,-1.183 47.109,20.469 44.383,35.821 -2.742,15.339 -5.598,11.015 -13.801,7.988 -6.348,2.098 -7.043,12.195 -1.742,16.141 2.113,1.574 8.086,5.253 10.937,4.992 1.243,1.961 2.871,7.617 9.578,5.117 6.711,-2.492 23.493,-10.246 9.079,-41.203 z M 182.129,160.078 c 0,0 -15.172,2.883 -20.637,2.363 0.129,-3.418 -0.375,-6.828 -5.844,-6.828 -5.46,0 -5.964,2.891 -8.203,3.157 -1.984,-1.973 -7.836,-8.665 -3.601,-15.352 4.226,-6.691 11.504,-8.223 17.273,-3.145 2.985,2.618 2.121,8.262 1.992,10.086 -0.125,1.848 4.965,0.93 7.336,-2.879 2.731,1.055 9.571,8.399 11.684,12.598 v 0"
       style="fill:#ffffff;fill-opacity:1;fill-rule:nonzero;stroke:none"
       id="path486" /><path
       d="m 554.359,185.332 h 67.657 v 9.375 h -56.141 v 116.035 h -11.516 v -125.41 0"
       style="fill:#231f20;fill-opacity:1;fill-rule:nonzero;stroke:none"
       id="path488" /><path
       d="m 641.758,310.742 v -84.414 c 0,-28.496 14.996,-42.734 45.508,-42.734 30.515,0 45.511,14.238 45.511,42.734 v 84.414 H 721.27 v -85.461 c 0,-23.972 -11.684,-32.312 -34.004,-32.312 -22.317,0 -34,8.34 -34,32.312 v 85.461 h -11.508 v 0"
       style="fill:#231f20;fill-opacity:1;fill-rule:nonzero;stroke:none"
       id="path490" /><path
       d="m 763.887,185.332 h 35.566 c 39.059,0 54.75,29.18 54.75,62.699 0,33.528 -15.691,62.711 -54.75,62.711 h -35.566 z m 11.504,116.031 h 24.414 c 27.894,0 42.89,-19.461 42.89,-53.332 0,-33.871 -14.996,-53.324 -42.89,-53.324 h -24.414 v 106.656 0"
       style="fill:#231f20;fill-opacity:1;fill-rule:evenodd;stroke:none"
       id="path492" /><path
       d="m 904.078,185.332 h 11.504 l 24.59,103.172 h 0.34 l 24.59,-103.172 h 11.503 l 33.655,125.41 h -11.69 l -27.375,-104.57 h -0.34 l -24.589,104.57 h -11.504 l -25.11,-104.57 h -0.339 l -26.868,104.57 h -11.679 l 33.312,-125.41 v 0"
       style="fill:#231f20;fill-opacity:1;fill-rule:nonzero;stroke:none"
       id="path494" /><path
       d="m 1039.45,185.332 h 11.5 v 125.41 h -11.5 v -125.41 0"
       style="fill:#231f20;fill-opacity:1;fill-rule:nonzero;stroke:none"
       id="path496" /><path
       d="m 1172.81,276.176 c -4.37,21.363 -19.18,36.301 -42.55,36.301 -27.03,0 -48.83,-22.926 -48.83,-64.446 0,-41.508 20.24,-64.437 48.3,-64.437 17.43,0 26.68,4.336 34.17,14.062 h 0.35 v -12.324 h 9.94 v 58.699 h -43.25 v -9.375 h 31.75 v -11.453 c 0,-16.68 -11.68,-30.234 -29.47,-30.234 -32.43,0 -40.29,28.144 -40.29,55.062 0,33.871 14.49,55.063 36.63,55.063 18.66,0 28.59,-12.852 32.43,-28.832 l 10.82,1.914 v 0"
       style="fill:#231f20;fill-opacity:1;fill-rule:nonzero;stroke:none"
       id="path498" /><path
       d="m 1198.17,217.117 c 6.97,-22.937 20.75,-33.523 44.81,-33.523 20.4,0 38.36,11.804 38.36,33.172 0,18.07 -7.16,26.75 -42.54,39.957 -23.19,8.683 -25.64,14.761 -25.64,23.273 0,14.77 10.12,23.098 24.76,23.098 16.05,0 25.82,-9.727 30.35,-23.621 l 9.94,2.953 c -5.76,19.285 -20.41,30.051 -40.29,30.051 -23.35,0 -36.26,-13.891 -36.26,-32.481 0,-41.519 68.17,-28.312 68.17,-62.008 0,-15.117 -9.41,-25.019 -25.1,-25.019 -19.89,0 -31.04,8.34 -35.92,27.449 l -10.64,-3.301 v 0"
       style="fill:#231f20;fill-opacity:1;fill-rule:nonzero;stroke:none"
       id="path500" /><path
       d="m 1309.42,185.332 h 40.11 c 27.19,0 44.8,8.328 44.8,34.395 0,15.8 -9.06,26.394 -22.84,32.476 12.55,5.735 17.78,13.547 17.78,27.094 0,21.719 -13.6,31.445 -44.64,31.445 h -35.21 z m 11.5,116.031 h 22.68 c 22.66,0 34.17,-4.519 34.17,-22.937 0,-18.41 -14.65,-23.27 -29.47,-23.27 h -27.38 z m 0,-55.582 h 26.16 c 25.28,0 35.75,-10.945 35.75,-25.363 0,-17.723 -9.94,-25.711 -32.09,-25.711 h -29.82 v 51.074 0"
       style="fill:#231f20;fill-opacity:1;fill-rule:evenodd;stroke:none"
       id="path502" /><path
       d="m 1423.07,310.742 v -84.414 c 0,-28.496 14.99,-42.734 45.51,-42.734 30.52,0 45.52,14.238 45.52,42.734 v 84.414 h -11.52 v -85.461 c 0,-23.972 -11.69,-32.312 -34,-32.312 -22.32,0 -34,8.34 -34,32.312 v 85.461 h -11.51 v 0"
       style="fill:#231f20;fill-opacity:1;fill-rule:nonzero;stroke:none"
       id="path504" /><path
       d="m 1601.06,244.734 c 17.96,4.512 26.15,15.457 26.15,31.965 0,20.496 -13.94,34.043 -38.7,34.043 h -42.55 v -125.41 h 11.51 v 57.313 h 32.6 l 29.3,-57.313 h 12.56 z m -43.59,56.629 h 31.04 c 18.13,0 27.2,-9.207 27.2,-24.664 0,-15.465 -10.46,-24.668 -27.2,-24.668 h -31.04 v 49.332 0"
       style="fill:#231f20;fill-opacity:1;fill-rule:evenodd;stroke:none"
       id="path506" /><path
       d="m 1741.92,276.176 c -4.37,21.363 -19.18,36.301 -42.55,36.301 -27.03,0 -48.83,-22.926 -48.83,-64.446 0,-41.508 20.24,-64.437 48.31,-64.437 17.43,0 26.68,4.336 34.16,14.062 h 0.35 v -12.324 h 9.95 v 58.699 h -43.25 v -9.375 h 31.74 v -11.453 c 0,-16.68 -11.68,-30.234 -29.47,-30.234 -32.43,0 -40.27,28.144 -40.27,55.062 0,33.871 14.47,55.063 36.62,55.063 18.65,0 28.59,-12.852 32.43,-28.832 l 10.81,1.914 v 0"
       style="fill:#231f20;fill-opacity:1;fill-rule:nonzero;stroke:none"
       id="path508" /></g></svg>
